<?xml version="1.0" encoding="UTF-8"?>
<svg id="Layer_2" data-name="Layer 2" xmlns="http://www.w3.org/2000/svg" viewBox="0 0 1235.092 202.935">
  <defs>
    <style>
      .cls-1 {
        fill: #8d81ef;
      }
    </style>
  </defs>
  <g id="Layer_1-2" data-name="Layer 1">
    <g id="Logo_-_Violet" data-name="Logo - Violet">
      <g>
        <g>
          <path class="cls-1" d="M203.06,98.755h-36.418l25.226-43.69c6.789,13.164,10.778,27.985,11.193,43.69Z"/>
          <path class="cls-1" d="M188.955,49.789l-26.792,46.403-19.013-32.931c4.274-3.356,7.029-8.558,7.029-14.413s-2.756-11.058-7.03-14.414l11.337-19.635c14.142,8.673,25.997,20.713,34.469,34.99Z"/>
          <path class="cls-1" d="M131.848,67.18c2.419,0,4.723-.48,6.837-1.331l18.999,32.906h-51.672l18.999-32.906c2.114.851,4.418,1.331,6.837,1.331Z"/>
          <polygon class="cls-1" points="157.704 103.917 131.848 148.697 105.993 103.917 157.704 103.917"/>
          <path class="cls-1" d="M150.023,12.21l-11.339,19.638c-2.114-.851-4.418-1.331-6.837-1.331s-4.722.48-6.836,1.331L106.623,0c15.652.776,30.383,5.111,43.4,12.21Z"/>
          <path class="cls-1" d="M120.547,34.435c-4.274,3.356-7.03,8.558-7.03,14.414s2.756,11.057,7.03,14.413l-19.013,32.931-27.336-47.344L101.534,1.504l19.013,32.93Z"/>
          <path class="cls-1" d="M71.219,141.64c-1.301,0-2.531.258-3.707.635l-18.303-31.7c1.943-1.722,3.365-4.017,3.903-6.659h43.962l-22.148,38.359c-1.176-.377-2.406-.635-3.707-.635Z"/>
          <path class="cls-1" d="M53.034,98.755c-.584-2.57-1.991-4.801-3.913-6.472l22.099-38.274,25.835,44.746h-44.021Z"/>
          <path class="cls-1" d="M96.444,0l-25.225,43.689-18.176-31.479C66.06,5.11,80.791.776,96.444,0Z"/>
          <path class="cls-1" d="M48.581,14.8l19.659,34.049-23.647,40.956c-1.101-.326-2.243-.555-3.45-.555-1.355,0-2.636.273-3.854.681L14.112,49.789c8.472-14.277,20.327-26.316,34.469-34.989Z"/>
          <path class="cls-1" d="M11.199,55.064l21.643,37.486c-1.761,1.639-3.038,3.776-3.59,6.205H.006c.415-15.705,4.403-30.527,11.193-43.69Z"/>
          <path class="cls-1" d="M0,103.917h29.174c.509,2.5,1.798,4.702,3.58,6.392l-21.616,37.438C4.349,134.541.376,119.671,0,103.917Z"/>
          <path class="cls-1" d="M14.046,153.029l23.131-40.062c1.25.432,2.569.715,3.965.715,1.247,0,2.427-.242,3.561-.589l18.332,31.751c-2.46,2.235-4.033,5.428-4.033,9.013s1.573,6.779,4.033,9.013l-14.551,25.201c-14.137-8.691-25.982-20.749-34.439-35.042Z"/>
          <path class="cls-1" d="M52.946,190.665l14.566-25.228c1.176.377,2.406.635,3.707.635s2.532-.258,3.708-.635l21.65,37.497c-15.742-.76-30.554-5.118-43.632-12.27Z"/>
          <path class="cls-1" d="M79.402,162.87c2.46-2.235,4.033-5.428,4.033-9.013s-1.572-6.779-4.033-9.013l22.131-38.331,27.336,47.345-27.335,47.344-22.132-38.331Z"/>
          <path class="cls-1" d="M106.491,202.935l25.357-43.919,18.273,31.649c-13.077,7.152-27.889,11.51-43.631,12.27Z"/>
          <path class="cls-1" d="M154.582,188.071l-19.754-34.214,27.336-47.345,26.857,46.516c-8.457,14.294-20.302,26.351-34.439,35.042Z"/>
          <path class="cls-1" d="M166.623,103.917h36.444c-.376,15.754-4.349,30.623-11.138,43.83l-25.306-43.83Z"/>
        </g>
        <path class="cls-1" d="M282.442,33.485h64.54c20.908,0,36.487,4.385,46.737,13.151,10.25,8.769,15.38,21.178,15.38,37.228,0,15.918-5.092,28.259-15.277,37.026-10.185,8.769-25.797,13.221-46.839,13.353l-39.454.204v38.644h-25.086V33.485ZM343.946,116.035c13.082,0,22.83-2.762,29.236-8.296,6.406-5.529,9.614-13.421,9.614-23.673,0-10.521-3.171-18.543-9.512-24.077-6.341-5.529-16.118-8.296-29.338-8.296h-36.418v64.34h36.418Z"/>
        <path class="cls-1" d="M431.01,27.416h23.875v145.676h-23.875V27.416Z"/>
        <path class="cls-1" d="M505.2,168.742c-8.973-4.382-15.783-10.521-20.435-18.413-4.656-7.889-6.982-17.095-6.982-27.616,0-10.654,2.428-20.063,7.284-28.224,4.856-8.161,11.838-14.535,20.941-19.121,9.103-4.584,19.729-6.88,31.868-6.88,17.937,0,32.068,4.689,42.388,14.063,10.32,9.375,15.477,22.289,15.477,38.746v4.45h-93.879c.673,10.389,4.21,18.448,10.621,24.179,6.406,5.735,15.203,8.6,26.405,8.6,8.495,0,15.542-1.483,21.14-4.452,5.598-2.966,9.679-7.012,12.241-12.139h22.255c-3.101,10.252-9.577,18.381-19.423,24.381-9.846,6.002-22.459,9.003-37.834,9.003-12.413,0-23.099-2.193-32.068-6.576ZM571.866,112.191c-1.485-8.63-5.157-15.444-11.025-20.435-5.868-4.99-13.592-7.488-23.169-7.488-9.442,0-17.232,2.463-23.369,7.386-6.137,4.925-10.083,11.77-11.838,20.537h69.4Z"/>
        <path class="cls-1" d="M604.44,170.462l43.302-49.165-42.086-47.752v-2.63h25.694l33.586,37.228,1.62,4.048h2.832l1.62-4.048,33.382-37.228h25.291v2.428l-42.286,47.954,43.502,48.963v2.832h-26.103l-34.394-38.442-1.416-4.25h-3.036l-1.212,4.25-34.398,38.442h-25.899v-2.63Z"/>
        <path class="cls-1" d="M856.739,70.915h20.031v9.916l-1.62,11.531h2.024c2.966-7.147,7.687-12.915,14.163-17.299,6.471-4.382,14.567-6.576,24.279-6.576,7.284,0,13.62,1.012,19.019,3.036v21.041c-7.154-2.291-13.759-3.438-19.827-3.438-10.928,0-19.358,3.338-25.295,10.013-5.933,6.678-8.899,16.02-8.899,28.022v45.93h-23.875v-102.176Z"/>
        <path class="cls-1" d="M955.979,167.932c-7.353-5.058-11.03-12.037-11.03-20.941,0-8.497,3.338-15.275,10.018-20.333,6.675-5.06,18.109-8.261,34.292-9.612l43.906-3.642v-5.666c0-7.957-2.767-13.991-8.296-18.109-5.529-4.113-13.286-6.169-23.267-6.169-9.577,0-16.995,1.82-22.255,5.462-5.26,3.642-8.026,8.904-8.296,15.783h-23.875c.269-11.601,5.19-20.537,14.767-26.809,9.577-6.274,22.932-9.41,40.062-9.41,18.615,0,32.439,3.509,41.478,10.521,9.038,7.014,13.555,17.065,13.555,30.146v63.937h-19.827v-11.127l1.62-9.106h-2.632c-4.048,6.61-10.217,12.039-18.513,16.287-8.296,4.25-18.583,6.374-30.856,6.374-13.221,0-23.503-2.53-30.852-7.588ZM975.198,156.298c4.113,2.565,9.744,3.844,16.897,3.844,7.957,0,15.073-1.448,21.345-4.35,6.272-2.899,11.127-6.845,14.567-11.835,3.44-4.99,5.157-10.654,5.157-16.997v-.404l-40.665,3.44c-8.231.675-14.2,2.261-17.905,4.754-3.714,2.497-5.566,5.903-5.566,10.217,0,4.993,2.056,8.771,6.169,11.332Z"/>
        <path class="cls-1" d="M1102.973,168.841c-9.308-4.45-16.461-10.723-21.447-18.815-4.995-8.094-7.488-17.468-7.488-28.125s2.493-19.996,7.488-28.022c4.986-8.024,12.172-14.263,21.544-18.715,9.377-4.452,20.402-6.678,33.085-6.678,15.913,0,29.134,3.407,39.653,10.217,10.524,6.812,16.86,16.02,19.019,27.619h-24.074c-2.567-6.743-6.847-12.005-12.85-15.781-6.002-3.776-13.323-5.666-21.953-5.666-11.735,0-21.01,3.407-27.821,10.217-6.815,6.812-10.217,15.681-10.217,26.607,0,11.197,3.44,20.2,10.32,27.01,6.88,6.812,16.118,10.217,27.718,10.217,8.361,0,15.579-1.887,21.651-5.666,6.067-3.774,10.45-9.034,13.151-15.781h24.074c-2.024,11.332-8.263,20.504-18.713,27.516-10.459,7.017-23.847,10.521-40.164,10.521-12.682,0-23.67-2.226-32.978-6.678Z"/>
        <polygon class="cls-1" points="723.696 33.485 723.696 53.516 777.321 53.516 777.321 173.091 801.395 173.091 801.395 53.516 855.012 53.516 855.012 33.485 723.696 33.485"/>
        <path class="cls-1" d="M1213.64,173.916c-2.122-1.069-3.771-2.58-4.945-4.533-1.176-1.954-1.763-4.197-1.763-6.73s.587-4.778,1.763-6.732c1.174-1.954,2.832-3.472,4.969-4.556,2.136-1.084,4.593-1.625,7.372-1.625s5.226.541,7.348,1.625c2.122,1.084,3.771,2.602,4.945,4.556,1.176,1.954,1.763,4.198,1.763,6.732s-.594,4.77-1.785,6.708c-1.191,1.938-2.847,3.449-4.969,4.532-2.122,1.084-4.571,1.627-7.348,1.627s-5.228-.534-7.35-1.603ZM1227.194,171.947c1.785-.885,3.159-2.129,4.12-3.732.963-1.603,1.443-3.458,1.443-5.563s-.48-3.968-1.443-5.587c-.961-1.618-2.328-2.862-4.098-3.732-1.77-.87-3.831-1.305-6.181-1.305-2.382,0-4.45.436-6.204,1.305-1.756.87-3.114,2.107-4.076,3.708-.961,1.603-1.443,3.473-1.443,5.61s.473,4.006,1.419,5.609c.946,1.602,2.306,2.839,4.076,3.708,1.77.87,3.831,1.305,6.182,1.305s4.418-.442,6.204-1.327ZM1214.304,155.829h8.517c1.77,0,3.114.344,4.03,1.031.916.686,1.373,1.641,1.373,2.861,0,.917-.259,1.673-.778,2.267-.52.596-1.252.985-2.198,1.169l-.916-.046v.274c1.282.092,2.228.39,2.839.893.611.504.916,1.305.916,2.403v1.053c0,.337.015.604.046.801.031.199.122.359.276.481v.32h-3.16c-.245-.213-.366-.611-.366-1.191v-1.282c0-.793-.199-1.358-.596-1.695-.397-.335-1.145-.504-2.243-.504l-4.717.046v4.625h-3.022v-13.508ZM1222.089,162.561c1.952,0,2.93-.733,2.93-2.198s-.978-2.197-2.93-2.197h-4.763v4.396h4.763Z"/>
      </g>
    </g>
  </g>
</svg>