<svg width="152" height="40" viewBox="0 0 152 40" fill="none" xmlns="http://www.w3.org/2000/svg">
<path d="M108.732 14.7618H104.55L112.195 4.97656H116.376L108.732 14.7618Z" fill="url(#paint0_radial_10402_2134)"/>
<path d="M42.4006 8.47094H36.251V4.97656H52.0734V8.47094H46.1441V24.825H42.4006V8.47094Z" fill="white"/>
<path d="M52.0732 10.0087H55.7069V12.217C56.1727 11.3784 56.8717 10.74 57.8038 10.302C58.736 9.86395 59.882 9.7475 61.242 9.95263V13.8388C60.3286 13.5215 59.4435 13.4609 58.5867 13.6569C57.7696 13.8278 57.035 14.2714 56.5034 14.9149C55.973 15.556 55.7075 16.3434 55.7069 17.2771V24.8252H52.0732V10.0087Z" fill="white"/>
<path d="M69.5512 25.0486C68.5482 25.0512 67.5546 24.8556 66.6274 24.473C65.7003 24.0904 64.8579 23.5283 64.1487 22.8191C63.4394 22.1098 62.8774 21.2674 62.4948 20.3402C62.1122 19.4131 61.9166 18.4194 61.9192 17.4164C61.9079 16.0606 62.2654 14.7272 62.9536 13.559C63.6254 12.4026 64.5895 11.4431 65.7492 10.777C66.9024 10.1028 68.2154 9.75056 69.5512 9.75698C70.7324 9.7496 71.8979 10.0278 72.9485 10.5679C73.9923 11.1015 74.9005 11.8664 75.6039 12.8042C76.3121 13.734 76.7953 14.8151 77.0157 15.9629C77.2198 16.8827 77.2291 17.835 77.0429 18.7585H65.5257C65.6392 19.3732 65.9048 19.9498 66.2981 20.4356C66.6763 20.899 67.1655 21.2593 67.7203 21.4829C68.3016 21.7189 68.9238 21.8377 69.5512 21.8323C70.265 21.8314 70.9722 21.694 71.6345 21.4276C72.2826 21.1788 72.8693 20.7925 73.3539 20.2954L76.5397 21.1624C75.9425 22.3376 74.9826 23.2788 73.66 23.9861C72.3374 24.6934 70.9678 25.0475 69.5512 25.0486ZM73.4926 15.9941C73.3569 15.4435 73.1041 14.9286 72.7514 14.4845C72.3855 14.0165 71.917 13.6387 71.3821 13.3804C70.802 13.1035 70.1658 12.9647 69.5231 12.9749C68.876 12.9657 68.2353 13.1044 67.6498 13.3804C67.1092 13.6362 66.6355 14.0142 66.266 14.4845C65.9135 14.9286 65.661 15.4435 65.5257 15.9941H73.4926Z" fill="white"/>
<path d="M78.8525 4.97656H82.4582V24.825H78.8525V4.97656Z" fill="white"/>
<path d="M85.1318 4.97656H88.7375V24.825H85.1318V4.97656Z" fill="white"/>
<path d="M91.2617 10.0088H94.8674V24.8252H91.2617V10.0088Z" fill="white"/>
<path d="M112.47 24.8212L100.892 10.0088H96.71L102.497 17.4118L96.71 24.8212H100.892L104.589 20.0881L108.288 24.8212H112.47Z" fill="white"/>
<path d="M0 37.3254V28.6162H1.30634V32.3487H5.93451V28.6162H7.24085V37.3254H5.93451V33.5307H1.30634V37.3254H0Z" fill="white"/>
<path d="M9.28881 40.0004C9.1561 40.0004 9.03169 39.9921 8.91557 39.9755C8.79945 39.9672 8.70407 39.9506 8.62942 39.9257V38.8308C8.77871 38.864 8.96119 38.8806 9.17684 38.8806C9.75743 38.8806 10.1763 38.5696 10.4334 37.9475L10.7071 37.3378L8.16909 30.9926H9.55007L11.3914 35.82L13.4318 30.9926H14.7754L11.7149 38.1092C11.5158 38.5571 11.3043 38.9179 11.0804 39.1917C10.8564 39.4737 10.5993 39.6769 10.309 39.8013C10.0187 39.934 9.67864 40.0004 9.28881 40.0004Z" fill="white"/>
<path d="M15.5482 39.8635V30.9926H16.7798V31.6022C17.3107 31.1294 17.9576 30.8931 18.7207 30.8931C19.3179 30.8931 19.857 31.0382 20.3381 31.3285C20.8274 31.6188 21.2131 32.0087 21.4951 32.498C21.7771 32.9874 21.9181 33.539 21.9181 34.1528C21.9181 34.7666 21.773 35.3223 21.4827 35.82C21.2007 36.3093 20.815 36.6992 20.3256 36.9895C19.8446 37.2798 19.3013 37.4249 18.6958 37.4249C18.3475 37.4249 18.0115 37.371 17.6881 37.2632C17.3646 37.1471 17.066 36.9853 16.7923 36.778V39.8635H15.5482ZM18.559 36.3425C18.9654 36.3425 19.3262 36.2471 19.6413 36.0563C19.9648 35.8656 20.2219 35.6084 20.4127 35.285C20.6035 34.9532 20.6989 34.5799 20.6989 34.1652C20.6989 33.7505 20.6035 33.3772 20.4127 33.0455C20.2219 32.7137 19.9648 32.4524 19.6413 32.2616C19.3262 32.0709 18.9654 31.9755 18.559 31.9755C18.2023 31.9755 17.8705 32.0418 17.5636 32.1745C17.2568 32.3073 16.9996 32.4939 16.7923 32.7344V35.596C16.9996 35.8283 17.2568 36.0107 17.5636 36.1434C17.8788 36.2762 18.2106 36.3425 18.559 36.3425Z" fill="white"/>
<path d="M26.141 37.4374C25.5189 37.4374 24.9549 37.2922 24.4489 37.0019C23.9513 36.7116 23.5532 36.3176 23.2546 35.82C22.9643 35.3223 22.8191 34.7666 22.8191 34.1528C22.8191 33.5473 22.9601 32.9998 23.2421 32.5105C23.5241 32.0128 23.9057 31.6188 24.3867 31.3285C24.8678 31.0299 25.4028 30.8806 25.9917 30.8806C26.5806 30.8806 27.1031 31.0299 27.5593 31.3285C28.0155 31.6188 28.3763 32.017 28.6417 32.5229C28.9154 33.0206 29.0522 33.5846 29.0522 34.215V34.5633H24.0633C24.1296 34.9117 24.2582 35.2228 24.4489 35.4965C24.648 35.7702 24.8968 35.9858 25.1954 36.1434C25.5023 36.301 25.8341 36.3798 26.1907 36.3798C26.4976 36.3798 26.7921 36.3342 27.0741 36.243C27.3644 36.1434 27.6049 36.0024 27.7957 35.82L28.5919 36.6038C28.2187 36.8858 27.833 37.0973 27.4349 37.2383C27.045 37.371 26.6137 37.4374 26.141 37.4374ZM24.0757 33.6302H27.8205C27.7708 33.2984 27.6547 33.0081 27.4722 32.7593C27.298 32.5022 27.0782 32.3031 26.8128 32.1621C26.5557 32.0128 26.2737 31.9382 25.9668 31.9382C25.6516 31.9382 25.3613 32.0087 25.0959 32.1497C24.8305 32.2907 24.6065 32.4897 24.4241 32.7469C24.2499 32.9957 24.1338 33.2901 24.0757 33.6302Z" fill="white"/>
<path d="M30.2372 37.3254V30.9926H31.4813V31.8013C31.6804 31.5027 31.925 31.2704 32.2153 31.1046C32.5139 30.9304 32.8499 30.8433 33.2231 30.8433C33.4802 30.8516 33.6917 30.8889 33.8576 30.9553V32.075C33.7415 32.0252 33.6212 31.9921 33.4968 31.9755C33.3724 31.9506 33.248 31.9382 33.1236 31.9382C32.7586 31.9382 32.4351 32.0377 32.1531 32.2368C31.8711 32.4275 31.6472 32.7095 31.4813 33.0828V37.3254H30.2372Z" fill="white"/>
<path d="M36.602 37.4374C36.1458 37.4374 35.7435 37.3586 35.3952 37.201C35.0468 37.0351 34.7731 36.807 34.574 36.5167C34.375 36.2264 34.2755 35.8905 34.2755 35.5089C34.2755 34.9117 34.5035 34.4431 34.9597 34.103C35.4159 33.7546 36.0421 33.5805 36.8384 33.5805C37.4604 33.5805 38.0369 33.7007 38.5677 33.9413V33.2694C38.5677 32.8132 38.435 32.4731 38.1696 32.2492C37.9125 32.0252 37.5309 31.9133 37.025 31.9133C36.7347 31.9133 36.4319 31.9589 36.1168 32.0501C35.8016 32.1331 35.4491 32.2658 35.0593 32.4483L34.5989 31.5151C35.08 31.2912 35.5279 31.1294 35.9426 31.0299C36.3573 30.9221 36.7762 30.8682 37.1992 30.8682C38.0203 30.8682 38.6548 31.0631 39.1027 31.4529C39.5589 31.8428 39.787 32.3985 39.787 33.1201V37.3254H38.5677V36.778C38.2857 37.0019 37.983 37.1678 37.6595 37.2756C37.336 37.3835 36.9835 37.4374 36.602 37.4374ZM35.4698 35.484C35.4698 35.7909 35.5984 36.0398 35.8555 36.2305C36.1209 36.413 36.4651 36.5043 36.8881 36.5043C37.2199 36.5043 37.5226 36.4586 37.7963 36.3674C38.0784 36.2679 38.3355 36.1144 38.5677 35.907V34.8371C38.3272 34.6961 38.0742 34.5965 37.8088 34.5385C37.5517 34.4721 37.2614 34.4389 36.9379 34.4389C36.4817 34.4389 36.1209 34.5343 35.8555 34.7251C35.5984 34.9076 35.4698 35.1605 35.4698 35.484Z" fill="white"/>
<path d="M43.6107 37.4498C43.1214 37.4498 42.6901 37.3461 42.3168 37.1388C41.9436 36.9314 41.6533 36.6411 41.4459 36.2679C41.2386 35.8863 41.1349 35.4509 41.1349 34.9615V30.9926H42.3666V34.75C42.3666 35.2476 42.5076 35.6416 42.7896 35.9319C43.0799 36.2222 43.4656 36.3674 43.9466 36.3674C44.2867 36.3674 44.5894 36.2969 44.8549 36.1559C45.1203 36.0066 45.3359 35.7992 45.5018 35.5338V30.9926H46.7459V37.3254H45.5018V36.6784C45.0124 37.1927 44.3821 37.4498 43.6107 37.4498Z" fill="white"/>
<path d="M50.931 37.4374C50.3172 37.4374 49.8486 37.2964 49.5251 37.0144C49.2016 36.7241 49.0399 36.3052 49.0399 35.7577V32.0377H47.6962V30.9926H49.0399V29.3752L50.2716 29.0766V30.9926H52.1378V32.0377H50.2716V35.4716C50.2716 35.7951 50.3421 36.0273 50.4831 36.1683C50.6324 36.301 50.8729 36.3674 51.2047 36.3674C51.3789 36.3674 51.5323 36.355 51.665 36.3301C51.806 36.3052 51.9553 36.2679 52.1129 36.2181V37.2632C51.947 37.3213 51.7521 37.3627 51.5282 37.3876C51.3125 37.4208 51.1135 37.4374 50.931 37.4374Z" fill="white"/>
<path d="M55.968 37.4498C55.3542 37.4498 54.7943 37.3047 54.2884 37.0144C53.7907 36.7241 53.3968 36.3301 53.1065 35.8324C52.8162 35.3347 52.671 34.779 52.671 34.1652C52.671 33.5514 52.8162 32.9957 53.1065 32.498C53.3968 32.0004 53.7907 31.6064 54.2884 31.3161C54.7943 31.0175 55.3542 30.8682 55.968 30.8682C56.59 30.8682 57.1499 31.0175 57.6475 31.3161C58.1452 31.6064 58.5392 32.0004 58.8295 32.498C59.1198 32.9957 59.2649 33.5514 59.2649 34.1652C59.2649 34.779 59.1198 35.3347 58.8295 35.8324C58.5392 36.3301 58.1452 36.7241 57.6475 37.0144C57.1499 37.3047 56.59 37.4498 55.968 37.4498ZM55.968 36.3549C56.3578 36.3549 56.7103 36.2596 57.0255 36.0688C57.3407 35.8697 57.5895 35.6043 57.772 35.2725C57.9544 34.9407 58.0457 34.5675 58.0457 34.1528C58.0457 33.7463 57.9503 33.3814 57.7595 33.0579C57.577 32.7261 57.3282 32.4607 57.013 32.2616C56.7061 32.0626 56.3578 31.963 55.968 31.963C55.5781 31.963 55.2256 32.0626 54.9105 32.2616C54.6036 32.4607 54.3547 32.7261 54.164 33.0579C53.9815 33.3814 53.8903 33.7463 53.8903 34.1528C53.8903 34.5675 53.9815 34.9407 54.164 35.2725C54.3464 35.6043 54.5953 35.8697 54.9105 36.0688C55.2256 36.2596 55.5781 36.3549 55.968 36.3549Z" fill="white"/>
<path d="M60.4414 37.3254V30.9926H61.6855V31.6022C62.1583 31.1129 62.7513 30.8682 63.4646 30.8682C63.8959 30.8682 64.2775 30.9636 64.6092 31.1543C64.9493 31.3451 65.2189 31.6022 65.4179 31.9257C65.6833 31.5773 65.9944 31.3161 66.351 31.1419C66.7077 30.9594 67.1099 30.8682 67.5578 30.8682C68.0306 30.8682 68.4412 30.9718 68.7895 31.1792C69.1462 31.3866 69.424 31.6769 69.6231 32.0501C69.8305 32.4234 69.9341 32.8547 69.9341 33.3441V37.3254H68.69V33.5556C68.69 33.0579 68.5573 32.6681 68.2919 32.3861C68.0348 32.0957 67.6822 31.9506 67.2344 31.9506C66.9275 31.9506 66.6496 32.0211 66.4008 32.1621C66.152 32.3031 65.9363 32.5188 65.7538 32.8091C65.7704 32.892 65.7829 32.9791 65.7912 33.0703C65.7995 33.1616 65.8036 33.2528 65.8036 33.3441V37.3254H64.5719V33.5556C64.5719 33.0579 64.4392 32.6681 64.1738 32.3861C63.9167 32.0957 63.5642 31.9506 63.1163 31.9506C62.8177 31.9506 62.5481 32.017 62.3076 32.1497C62.0671 32.2741 61.8597 32.4649 61.6855 32.722V37.3254H60.4414Z" fill="white"/>
<path d="M73.3671 37.4374C72.9109 37.4374 72.5086 37.3586 72.1602 37.201C71.8119 37.0351 71.5382 36.807 71.3391 36.5167C71.1401 36.2264 71.0405 35.8905 71.0405 35.5089C71.0405 34.9117 71.2686 34.4431 71.7248 34.103C72.181 33.7546 72.8072 33.5805 73.6034 33.5805C74.2255 33.5805 74.802 33.7007 75.3328 33.9413V33.2694C75.3328 32.8132 75.2001 32.4731 74.9347 32.2492C74.6775 32.0252 74.296 31.9133 73.7901 31.9133C73.4998 31.9133 73.197 31.9589 72.8818 32.0501C72.5667 32.1331 72.2142 32.2658 71.8243 32.4483L71.364 31.5151C71.8451 31.2912 72.293 31.1294 72.7077 31.0299C73.1224 30.9221 73.5412 30.8682 73.9642 30.8682C74.7854 30.8682 75.4199 31.0631 75.8678 31.4529C76.3239 31.8428 76.552 32.3985 76.552 33.1201V37.3254H75.3328V36.778C75.0508 37.0019 74.748 37.1678 74.4246 37.2756C74.1011 37.3835 73.7486 37.4374 73.3671 37.4374ZM72.2349 35.484C72.2349 35.7909 72.3635 36.0398 72.6206 36.2305C72.886 36.413 73.2302 36.5043 73.6532 36.5043C73.985 36.5043 74.2877 36.4586 74.5614 36.3674C74.8434 36.2679 75.1005 36.1144 75.3328 35.907V34.8371C75.0923 34.6961 74.8393 34.5965 74.5739 34.5385C74.3167 34.4721 74.0264 34.4389 73.703 34.4389C73.2468 34.4389 72.886 34.5343 72.6206 34.7251C72.3635 34.9076 72.2349 35.1605 72.2349 35.484Z" fill="white"/>
<path d="M80.5156 37.4374C79.9018 37.4374 79.4332 37.2964 79.1097 37.0144C78.7862 36.7241 78.6245 36.3052 78.6245 35.7577V32.0377H77.2808V30.9926H78.6245V29.3752L79.8562 29.0766V30.9926H81.7224V32.0377H79.8562V35.4716C79.8562 35.7951 79.9267 36.0273 80.0677 36.1683C80.217 36.301 80.4575 36.3674 80.7893 36.3674C80.9635 36.3674 81.1169 36.355 81.2496 36.3301C81.3906 36.3052 81.5399 36.2679 81.6975 36.2181V37.2632C81.5316 37.3213 81.3367 37.3627 81.1128 37.3876C80.8971 37.4208 80.698 37.4374 80.5156 37.4374Z" fill="white"/>
<path d="M82.6389 37.3254V30.9926H83.8831V37.3254H82.6389ZM83.261 29.9724C83.0537 29.9724 82.8753 29.8977 82.726 29.7484C82.5767 29.5908 82.5021 29.4083 82.5021 29.201C82.5021 28.9853 82.5767 28.807 82.726 28.666C82.8753 28.5167 83.0537 28.442 83.261 28.442C83.4767 28.442 83.6591 28.5167 83.8084 28.666C83.9577 28.807 84.0324 28.9853 84.0324 29.201C84.0324 29.4083 83.9577 29.5908 83.8084 29.7484C83.6591 29.8977 83.4767 29.9724 83.261 29.9724Z" fill="white"/>
<path d="M88.3591 37.4498C87.7454 37.4498 87.1855 37.3047 86.6796 37.0144C86.1819 36.7241 85.7879 36.3301 85.4976 35.8324C85.2073 35.3347 85.0622 34.779 85.0622 34.1652C85.0622 33.5514 85.2073 32.9957 85.4976 32.498C85.7879 32.0004 86.1819 31.6064 86.6796 31.3161C87.1855 31.0175 87.7454 30.8682 88.3591 30.8682C88.9812 30.8682 89.5411 31.0175 90.0387 31.3161C90.5364 31.6064 90.9303 32.0004 91.2206 32.498C91.5109 32.9957 91.6561 33.5514 91.6561 34.1652C91.6561 34.779 91.5109 35.3347 91.2206 35.8324C90.9303 36.3301 90.5364 36.7241 90.0387 37.0144C89.5411 37.3047 88.9812 37.4498 88.3591 37.4498ZM88.3591 36.3549C88.749 36.3549 89.1015 36.2596 89.4167 36.0688C89.7318 35.8697 89.9807 35.6043 90.1631 35.2725C90.3456 34.9407 90.4368 34.5675 90.4368 34.1528C90.4368 33.7463 90.3415 33.3814 90.1507 33.0579C89.9682 32.7261 89.7194 32.4607 89.4042 32.2616C89.0973 32.0626 88.749 31.963 88.3591 31.963C87.9693 31.963 87.6168 32.0626 87.3016 32.2616C86.9947 32.4607 86.7459 32.7261 86.5551 33.0579C86.3727 33.3814 86.2814 33.7463 86.2814 34.1528C86.2814 34.5675 86.3727 34.9407 86.5551 35.2725C86.7376 35.6043 86.9864 35.8697 87.3016 36.0688C87.6168 36.2596 87.9693 36.3549 88.3591 36.3549Z" fill="white"/>
<path d="M92.8326 37.3254V30.9926H94.0767V31.6396C94.5661 31.1253 95.2006 30.8682 95.9802 30.8682C96.4696 30.8682 96.8967 30.9718 97.2617 31.1792C97.6349 31.3866 97.9252 31.6769 98.1326 32.0501C98.3482 32.4234 98.4561 32.8547 98.4561 33.3441V37.3254H97.2119V33.5556C97.2119 33.0579 97.0709 32.6681 96.7889 32.3861C96.5152 32.0957 96.1295 31.9506 95.6319 31.9506C95.3001 31.9506 95.0015 32.0211 94.7361 32.1621C94.4707 32.3031 94.2509 32.5063 94.0767 32.7717V37.3254H92.8326Z" fill="white"/>
<path d="M102.641 37.3254V28.6162H106.672C107.244 28.6162 107.742 28.7282 108.165 28.9522C108.588 29.1678 108.92 29.4706 109.16 29.8604C109.401 30.2502 109.521 30.7023 109.521 31.2165C109.521 31.7308 109.401 32.1828 109.16 32.5727C108.92 32.9625 108.584 33.2694 108.152 33.4934C107.729 33.709 107.236 33.8168 106.672 33.8168H103.947V37.3254H102.641ZM103.947 32.7095H106.535C107.049 32.7095 107.456 32.5768 107.754 32.3114C108.061 32.0377 108.215 31.6769 108.215 31.229C108.215 30.7811 108.061 30.4244 107.754 30.159C107.456 29.8936 107.049 29.7609 106.535 29.7609H103.947V32.7095Z" fill="white"/>
<path d="M110.717 37.3254V28.6162L111.961 28.3798V37.3254H110.717Z" fill="white"/>
<path d="M115.429 37.4374C114.973 37.4374 114.571 37.3586 114.223 37.201C113.874 37.0351 113.601 36.807 113.401 36.5167C113.202 36.2264 113.103 35.8905 113.103 35.5089C113.103 34.9117 113.331 34.4431 113.787 34.103C114.243 33.7546 114.87 33.5805 115.666 33.5805C116.288 33.5805 116.864 33.7007 117.395 33.9413V33.2694C117.395 32.8132 117.262 32.4731 116.997 32.2492C116.74 32.0252 116.358 31.9133 115.852 31.9133C115.562 31.9133 115.259 31.9589 114.944 32.0501C114.629 32.1331 114.277 32.2658 113.887 32.4483L113.426 31.5151C113.907 31.2912 114.355 31.1294 114.77 31.0299C115.185 30.9221 115.604 30.8682 116.027 30.8682C116.848 30.8682 117.482 31.0631 117.93 31.4529C118.386 31.8428 118.614 32.3985 118.614 33.1201V37.3254H117.395V36.778C117.113 37.0019 116.81 37.1678 116.487 37.2756C116.163 37.3835 115.811 37.4374 115.429 37.4374ZM114.297 35.484C114.297 35.7909 114.426 36.0398 114.683 36.2305C114.948 36.413 115.293 36.5043 115.716 36.5043C116.047 36.5043 116.35 36.4586 116.624 36.3674C116.906 36.2679 117.163 36.1144 117.395 35.907V34.8371C117.155 34.6961 116.902 34.5965 116.636 34.5385C116.379 34.4721 116.089 34.4389 115.765 34.4389C115.309 34.4389 114.948 34.5343 114.683 34.7251C114.426 34.9076 114.297 35.1605 114.297 35.484Z" fill="white"/>
<path d="M122.578 37.4374C121.964 37.4374 121.496 37.2964 121.172 37.0144C120.849 36.7241 120.687 36.3052 120.687 35.7577V32.0377H119.343V30.9926H120.687V29.3752L121.919 29.0766V30.9926H123.785V32.0377H121.919V35.4716C121.919 35.7951 121.989 36.0273 122.13 36.1683C122.279 36.301 122.52 36.3674 122.852 36.3674C123.026 36.3674 123.179 36.355 123.312 36.3301C123.453 36.3052 123.602 36.2679 123.76 36.2181V37.2632C123.594 37.3213 123.399 37.3627 123.175 37.3876C122.959 37.4208 122.76 37.4374 122.578 37.4374Z" fill="white"/>
<path d="M125.768 37.3254V32.0377H124.3V30.9926H125.768V30.0346C125.768 29.371 125.951 28.8651 126.316 28.5167C126.689 28.1683 127.22 27.9941 127.908 27.9941C128.082 27.9941 128.244 28.0066 128.393 28.0315C128.551 28.0481 128.692 28.0771 128.816 28.1186V29.1885C128.667 29.1471 128.534 29.118 128.418 29.1015C128.302 29.0766 128.174 29.0641 128.033 29.0641C127.684 29.0641 127.423 29.1471 127.249 29.313C127.083 29.4706 127 29.7235 127 30.0719V30.9926H128.816V32.0377H127V37.3254H125.768Z" fill="white"/>
<path d="M132.487 37.4498C131.873 37.4498 131.313 37.3047 130.807 37.0144C130.31 36.7241 129.916 36.3301 129.625 35.8324C129.335 35.3347 129.19 34.779 129.19 34.1652C129.19 33.5514 129.335 32.9957 129.625 32.498C129.916 32.0004 130.31 31.6064 130.807 31.3161C131.313 31.0175 131.873 30.8682 132.487 30.8682C133.109 30.8682 133.669 31.0175 134.167 31.3161C134.664 31.6064 135.058 32.0004 135.348 32.498C135.639 32.9957 135.784 33.5514 135.784 34.1652C135.784 34.779 135.639 35.3347 135.348 35.8324C135.058 36.3301 134.664 36.7241 134.167 37.0144C133.669 37.3047 133.109 37.4498 132.487 37.4498ZM132.487 36.3549C132.877 36.3549 133.229 36.2596 133.544 36.0688C133.86 35.8697 134.108 35.6043 134.291 35.2725C134.473 34.9407 134.565 34.5675 134.565 34.1528C134.565 33.7463 134.469 33.3814 134.279 33.0579C134.096 32.7261 133.847 32.4607 133.532 32.2616C133.225 32.0626 132.877 31.963 132.487 31.963C132.097 31.963 131.745 32.0626 131.429 32.2616C131.123 32.4607 130.874 32.7261 130.683 33.0579C130.5 33.3814 130.409 33.7463 130.409 34.1528C130.409 34.5675 130.5 34.9407 130.683 35.2725C130.865 35.6043 131.114 35.8697 131.429 36.0688C131.745 36.2596 132.097 36.3549 132.487 36.3549Z" fill="white"/>
<path d="M136.96 37.3254V30.9926H138.205V31.8013C138.404 31.5027 138.648 31.2704 138.939 31.1046C139.237 30.9304 139.573 30.8433 139.946 30.8433C140.203 30.8516 140.415 30.8889 140.581 30.9553V32.075C140.465 32.0252 140.344 31.9921 140.22 31.9755C140.096 31.9506 139.971 31.9382 139.847 31.9382C139.482 31.9382 139.158 32.0377 138.876 32.2368C138.594 32.4275 138.37 32.7095 138.205 33.0828V37.3254H136.96Z" fill="white"/>
<path d="M141.577 37.3254V30.9926H142.821V31.6022C143.294 31.1129 143.887 30.8682 144.601 30.8682C145.032 30.8682 145.413 30.9636 145.745 31.1543C146.085 31.3451 146.355 31.6022 146.554 31.9257C146.819 31.5773 147.13 31.3161 147.487 31.1419C147.844 30.9594 148.246 30.8682 148.694 30.8682C149.166 30.8682 149.577 30.9718 149.925 31.1792C150.282 31.3866 150.56 31.6769 150.759 32.0501C150.966 32.4234 151.07 32.8547 151.07 33.3441V37.3254H149.826V33.5556C149.826 33.0579 149.693 32.6681 149.428 32.3861C149.171 32.0957 148.818 31.9506 148.37 31.9506C148.063 31.9506 147.785 32.0211 147.537 32.1621C147.288 32.3031 147.072 32.5188 146.89 32.8091C146.906 32.892 146.919 32.9791 146.927 33.0703C146.935 33.1616 146.939 33.2528 146.939 33.3441V37.3254H145.708V33.5556C145.708 33.0579 145.575 32.6681 145.31 32.3861C145.053 32.0957 144.7 31.9506 144.252 31.9506C143.954 31.9506 143.684 32.017 143.443 32.1497C143.203 32.2741 142.996 32.4649 142.821 32.722V37.3254H141.577Z" fill="white"/>
<defs>
<radialGradient id="paint0_radial_10402_2134" cx="0" cy="0" r="1" gradientUnits="userSpaceOnUse" gradientTransform="translate(104.889 14.8475) scale(14.6013 14.6017)">
<stop offset="0.07" stop-color="#2814FF"/>
<stop offset="0.08" stop-color="#2718FF"/>
<stop offset="0.23" stop-color="#1654FF"/>
<stop offset="0.35" stop-color="#0A80FF"/>
<stop offset="0.45" stop-color="#039BFF"/>
<stop offset="0.5" stop-color="#00A5FF"/>
<stop offset="1" stop-color="#00CD00"/>
</radialGradient>
</defs>
</svg>
