<svg width="65" height="30" viewBox="0 0 65 30" fill="none" xmlns="http://www.w3.org/2000/svg">
<path d="M58.2582 11.8649H54.897L61.0416 4H64.4028L58.2582 11.8649Z" fill="url(#paint0_radial_0_1)"/>
<path d="M4.94292 6.80861H0V4H12.7176V6.80861H7.95182V19.9532H4.94292V6.80861Z" fill="white"/>
<path d="M12.7178 8.04437H15.6384V9.81931C16.0128 9.14523 16.5746 8.63215 17.3239 8.28008C18.0731 7.92801 18.9943 7.83441 20.0874 7.99929V11.1228C19.3532 10.8678 18.6418 10.8191 17.9531 10.9766C17.2964 11.114 16.7059 11.4705 16.2786 11.9878C15.8523 12.503 15.6389 13.1358 15.6384 13.8863V19.9531H12.7178V8.04437Z" fill="white"/>
<path d="M26.7654 20.133C25.9593 20.1352 25.1606 19.9779 24.4154 19.6704C23.6702 19.3629 22.9931 18.9111 22.423 18.3411C21.853 17.771 21.4012 17.0939 21.0937 16.3487C20.7862 15.6035 20.6289 14.8048 20.6311 13.9987C20.6219 12.9089 20.9093 11.8372 21.4625 10.8983C22.0024 9.96879 22.7774 9.19764 23.7095 8.66225C24.6364 8.12037 25.6918 7.83724 26.7654 7.8424C27.7149 7.83647 28.6517 8.06007 29.4961 8.49416C30.3351 8.92308 31.0651 9.53785 31.6304 10.2916C32.1997 11.0389 32.5881 11.9079 32.7652 12.8304C32.9293 13.5697 32.9367 14.3351 32.7871 15.0774H23.5298C23.6211 15.5715 23.8346 16.0349 24.1507 16.4254C24.4547 16.7978 24.8479 17.0874 25.2938 17.2671C25.7611 17.4568 26.2612 17.5523 26.7654 17.5479C27.3392 17.5472 27.9076 17.4368 28.4399 17.2227C28.9609 17.0227 29.4324 16.7122 29.822 16.3127L32.3827 17.0095C31.9026 17.9541 31.1311 18.7106 30.068 19.279C29.0049 19.8475 27.9041 20.1322 26.7654 20.133ZM29.9334 12.8555C29.8244 12.4129 29.6212 11.9991 29.3377 11.6422C29.0436 11.266 28.6671 10.9623 28.2371 10.7547C27.7708 10.5322 27.2594 10.4206 26.7429 10.4288C26.2227 10.4214 25.7077 10.5329 25.2372 10.7547C24.8027 10.9604 24.4219 11.2642 24.1249 11.6422C23.8416 11.9991 23.6386 12.413 23.5298 12.8555H29.9334Z" fill="white"/>
<path d="M34.2422 4H37.1403V19.9532H34.2422V4Z" fill="white"/>
<path d="M39.2891 4H42.1872V19.9532H39.2891V4Z" fill="white"/>
<path d="M44.2158 8.04443H47.1139V19.9532H44.2158V8.04443Z" fill="white"/>
<path d="M61.2626 19.9499L51.9564 8.04443H48.5952L53.2464 13.9946L48.5952 19.9499H51.9564L54.9279 16.1457L57.9014 19.9499H61.2626Z" fill="white"/>
<path d="M3 28.5V23.1667H3.64875V25.5417H6.50533V23.1667H7.15407V28.5H6.50533V26.1146H3.64875V28.5H3Z" fill="white"/>
<path d="M8.76678 30C8.66215 30 8.56885 29.9913 8.48688 29.974C8.40492 29.9583 8.34824 29.9427 8.31685 29.9271L8.4738 29.3854C8.62378 29.4236 8.75632 29.4375 8.87142 29.4271C8.98652 29.4167 9.08854 29.3655 9.17748 29.2734C9.26817 29.1832 9.35101 29.0365 9.42599 28.8333L9.5411 28.5208L8.05526 24.5H8.72493L9.83408 27.6875H9.87593L10.9851 24.5H11.6548L9.94918 29.0833C9.87244 29.2899 9.7774 29.4609 9.66404 29.5964C9.55069 29.7335 9.41902 29.8351 9.26904 29.901C9.1208 29.967 8.95339 30 8.76678 30Z" fill="white"/>
<path d="M12.4696 30V24.5H13.066V25.1354H13.1393C13.1846 25.066 13.2474 24.9774 13.3276 24.8698C13.4096 24.7604 13.5264 24.6632 13.6782 24.5781C13.8316 24.4913 14.0392 24.4479 14.3008 24.4479C14.6391 24.4479 14.9373 24.5321 15.1954 24.7005C15.4535 24.8689 15.6549 25.1076 15.7997 25.4167C15.9444 25.7257 16.0168 26.0903 16.0168 26.5104C16.0168 26.934 15.9444 27.3012 15.7997 27.612C15.6549 27.921 15.4544 28.1606 15.198 28.3307C14.9417 28.4991 14.6461 28.5833 14.3112 28.5833C14.0531 28.5833 13.8465 28.5408 13.6912 28.4557C13.536 28.3689 13.4166 28.2708 13.3329 28.1615C13.2492 28.0503 13.1846 27.9583 13.1393 27.8854H13.087V30H12.4696ZM13.0765 26.5C13.0765 26.8021 13.121 27.0686 13.2099 27.2995C13.2989 27.5286 13.4288 27.7083 13.5997 27.8385C13.7706 27.967 13.9799 28.0312 14.2275 28.0312C14.4856 28.0312 14.701 27.9635 14.8736 27.8281C15.048 27.691 15.1788 27.5069 15.266 27.276C15.355 27.0434 15.3994 26.7847 15.3994 26.5C15.3994 26.2187 15.3558 25.9653 15.2686 25.7396C15.1832 25.5122 15.0533 25.3325 14.8789 25.2005C14.7062 25.0668 14.4891 25 14.2275 25C13.9764 25 13.7654 25.0634 13.5945 25.1901C13.4235 25.3151 13.2945 25.4905 13.2073 25.7161C13.1201 25.9401 13.0765 26.2014 13.0765 26.5Z" fill="white"/>
<path d="M18.6432 28.5833C18.256 28.5833 17.9221 28.4983 17.6413 28.3281C17.3622 28.1562 17.1469 27.9167 16.9951 27.6094C16.8452 27.3003 16.7702 26.941 16.7702 26.5312C16.7702 26.1215 16.8452 25.7604 16.9951 25.4479C17.1469 25.1337 17.3579 24.8889 17.6282 24.7135C17.9003 24.5365 18.2176 24.4479 18.5804 24.4479C18.7897 24.4479 18.9963 24.4826 19.2004 24.5521C19.4044 24.6215 19.5901 24.7344 19.7576 24.8906C19.925 25.0451 20.0584 25.25 20.1578 25.5052C20.2572 25.7604 20.3069 26.0747 20.3069 26.4479V26.7083H17.2097V26.1771H19.6791C19.6791 25.9514 19.6337 25.75 19.543 25.5729C19.4541 25.3958 19.3268 25.2561 19.1611 25.1536C18.9972 25.0512 18.8036 25 18.5804 25C18.3345 25 18.1217 25.0608 17.9421 25.1823C17.7642 25.3021 17.6273 25.4583 17.5314 25.651C17.4355 25.8438 17.3875 26.0503 17.3875 26.2708V26.625C17.3875 26.9271 17.4399 27.1832 17.5445 27.3932C17.6509 27.6016 17.7982 27.7604 17.9866 27.8698C18.1749 27.9774 18.3938 28.0312 18.6432 28.0312C18.8054 28.0312 18.9518 28.0087 19.0826 27.9635C19.2152 27.9167 19.3294 27.8472 19.4253 27.7552C19.5212 27.6615 19.5954 27.5451 19.6477 27.4062L20.2441 27.5729C20.1813 27.7743 20.0758 27.9514 19.9276 28.1042C19.7794 28.2552 19.5962 28.3733 19.3782 28.4583C19.1603 28.5417 18.9152 28.5833 18.6432 28.5833Z" fill="white"/>
<path d="M21.246 28.5V24.5H21.8424V25.1042H21.8843C21.9575 24.9062 22.0901 24.7457 22.2819 24.6224C22.4737 24.4991 22.69 24.4375 22.9307 24.4375C22.976 24.4375 23.0327 24.4384 23.1007 24.4401C23.1687 24.4418 23.2202 24.4444 23.255 24.4479V25.0729C23.2341 25.0677 23.1861 25.0599 23.1112 25.0495C23.0379 25.0373 22.9603 25.0312 22.8783 25.0312C22.683 25.0312 22.5086 25.072 22.3552 25.1536C22.2034 25.2335 22.0831 25.3446 21.9942 25.487C21.907 25.6276 21.8634 25.7882 21.8634 25.9688V28.5H21.246Z" fill="white"/>
<path d="M25.1692 28.5938C24.9146 28.5938 24.6835 28.546 24.476 28.4505C24.2685 28.3533 24.1037 28.2135 23.9816 28.0312C23.8595 27.8472 23.7985 27.625 23.7985 27.3646C23.7985 27.1354 23.8438 26.9497 23.9345 26.8073C24.0252 26.6632 24.1464 26.5503 24.2981 26.4687C24.4499 26.3872 24.6173 26.3264 24.8004 26.2865C24.9852 26.2448 25.171 26.2118 25.3576 26.1875C25.6017 26.1562 25.7997 26.1328 25.9514 26.1172C26.1049 26.0998 26.2165 26.0712 26.2862 26.0312C26.3577 25.9913 26.3935 25.9219 26.3935 25.8229V25.8021C26.3935 25.5451 26.3228 25.3455 26.1816 25.2031C26.0421 25.0608 25.8302 24.9896 25.5459 24.9896C25.2512 24.9896 25.0201 25.0538 24.8527 25.1823C24.6853 25.3108 24.5676 25.4479 24.4996 25.5937L23.9136 25.3854C24.0182 25.1424 24.1577 24.9531 24.3321 24.8177C24.5083 24.6806 24.7001 24.5851 24.9076 24.5312C25.1169 24.4757 25.3227 24.4479 25.525 24.4479C25.654 24.4479 25.8023 24.4635 25.9697 24.4948C26.1389 24.5243 26.3019 24.5859 26.4589 24.6797C26.6176 24.7734 26.7492 24.9149 26.8539 25.1042C26.9585 25.2934 27.0108 25.5469 27.0108 25.8646V28.5H26.3935V27.9583H26.3621C26.3202 28.0451 26.2505 28.138 26.1528 28.237C26.0551 28.3359 25.9252 28.4201 25.763 28.4896C25.6009 28.559 25.4029 28.5938 25.1692 28.5938ZM25.2634 28.0417C25.5075 28.0417 25.7133 27.9939 25.8808 27.8984C26.0499 27.803 26.1772 27.6797 26.2627 27.5286C26.3499 27.3776 26.3935 27.2188 26.3935 27.0521V26.4896C26.3673 26.5208 26.3098 26.5495 26.2208 26.5755C26.1336 26.5998 26.0325 26.6215 25.9174 26.6406C25.804 26.658 25.6933 26.6736 25.5852 26.6875C25.4788 26.6997 25.3925 26.7101 25.3262 26.7187C25.1657 26.7396 25.0158 26.7734 24.8762 26.8203C24.7385 26.8655 24.6269 26.934 24.5414 27.026C24.4577 27.1163 24.4158 27.2396 24.4158 27.3958C24.4158 27.6094 24.4952 27.7708 24.6539 27.8802C24.8143 27.9878 25.0175 28.0417 25.2634 28.0417Z" fill="white"/>
<path d="M30.6698 26.8646V24.5H31.2872V28.5H30.6698V27.8229H30.628C30.5338 28.026 30.3873 28.1988 30.1885 28.3411C29.9897 28.4818 29.7386 28.5521 29.4351 28.5521C29.184 28.5521 28.9608 28.4974 28.7655 28.388C28.5701 28.2769 28.4167 28.1102 28.3051 27.888C28.1934 27.6641 28.1376 27.3819 28.1376 27.0417V24.5H28.755V27C28.755 27.2917 28.837 27.5243 29.0009 27.6979C29.1666 27.8715 29.3776 27.9583 29.6339 27.9583C29.7874 27.9583 29.9435 27.9193 30.1022 27.8411C30.2626 27.763 30.3969 27.6432 30.505 27.4818C30.6149 27.3203 30.6698 27.1146 30.6698 26.8646Z" fill="white"/>
<path d="M34.1654 24.5V25.0208H32.0831V24.5H34.1654ZM32.69 23.5417H33.3073V27.3542C33.3073 27.5278 33.3326 27.658 33.3832 27.7448C33.4355 27.8299 33.5018 27.8872 33.582 27.9167C33.664 27.9444 33.7503 27.9583 33.841 27.9583C33.909 27.9583 33.9648 27.9549 34.0084 27.9479C34.052 27.9392 34.0869 27.9323 34.113 27.9271L34.2386 28.4792C34.1967 28.4948 34.1383 28.5104 34.0633 28.526C33.9883 28.5434 33.8933 28.5521 33.7782 28.5521C33.6038 28.5521 33.4329 28.5148 33.2655 28.4401C33.0998 28.3655 32.962 28.2517 32.8522 28.099C32.744 27.9462 32.69 27.7535 32.69 27.5208V23.5417Z" fill="white"/>
<path d="M36.6832 28.5833C36.3204 28.5833 36.0022 28.4974 35.7284 28.3255C35.4563 28.1536 35.2435 27.9132 35.0901 27.6042C34.9384 27.2951 34.8625 26.934 34.8625 26.5208C34.8625 26.1042 34.9384 25.7405 35.0901 25.4297C35.2435 25.1189 35.4563 24.8776 35.7284 24.7057C36.0022 24.5339 36.3204 24.4479 36.6832 24.4479C37.0459 24.4479 37.3633 24.5339 37.6354 24.7057C37.9092 24.8776 38.1219 25.1189 38.2737 25.4297C38.4271 25.7405 38.5039 26.1042 38.5039 26.5208C38.5039 26.934 38.4271 27.2951 38.2737 27.6042C38.1219 27.9132 37.9092 28.1536 37.6354 28.3255C37.3633 28.4974 37.0459 28.5833 36.6832 28.5833ZM36.6832 28.0312C36.9587 28.0312 37.1854 27.9609 37.3633 27.8203C37.5412 27.6797 37.6729 27.4948 37.7583 27.2656C37.8438 27.0365 37.8865 26.7882 37.8865 26.5208C37.8865 26.2535 37.8438 26.0043 37.7583 25.7734C37.6729 25.5425 37.5412 25.3559 37.3633 25.2135C37.1854 25.0712 36.9587 25 36.6832 25C36.4076 25 36.1809 25.0712 36.003 25.2135C35.8252 25.3559 35.6935 25.5425 35.608 25.7734C35.5226 26.0043 35.4799 26.2535 35.4799 26.5208C35.4799 26.7882 35.5226 27.0365 35.608 27.2656C35.6935 27.4948 35.8252 27.6797 36.003 27.8203C36.1809 27.9609 36.4076 28.0312 36.6832 28.0312Z" fill="white"/>
<path d="M39.4462 28.5V24.5H40.0427V25.125H40.095C40.1787 24.9115 40.3138 24.7457 40.5005 24.6276C40.6871 24.5078 40.9111 24.4479 41.1727 24.4479C41.4378 24.4479 41.6584 24.5078 41.8346 24.6276C42.0124 24.7457 42.1511 24.9115 42.2505 25.125H42.2924C42.3952 24.9184 42.5496 24.7543 42.7554 24.6328C42.9612 24.5095 43.2079 24.4479 43.4957 24.4479C43.8549 24.4479 44.1488 24.5599 44.3772 24.7839C44.6057 25.0061 44.7199 25.3524 44.7199 25.8229V28.5H44.1026V25.8229C44.1026 25.5278 44.0215 25.3168 43.8593 25.1901C43.6971 25.0634 43.5061 25 43.2864 25C43.0039 25 42.785 25.0851 42.6298 25.2552C42.4746 25.4236 42.397 25.6372 42.397 25.8958V28.5H41.7692V25.7604C41.7692 25.533 41.695 25.3498 41.5468 25.2109C41.3986 25.0703 41.2076 25 40.9739 25C40.8135 25 40.6635 25.0425 40.524 25.1276C40.3862 25.2127 40.2746 25.3307 40.1892 25.4818C40.1054 25.6311 40.0636 25.8038 40.0636 26V28.5H39.4462Z" fill="white"/>
<path d="M47.0311 28.5938C46.7765 28.5938 46.5454 28.546 46.3379 28.4505C46.1303 28.3533 45.9655 28.2135 45.8435 28.0312C45.7214 27.8472 45.6603 27.625 45.6603 27.3646C45.6603 27.1354 45.7057 26.9497 45.7964 26.8073C45.8871 26.6632 46.0083 26.5503 46.16 26.4687C46.3117 26.3872 46.4791 26.3264 46.6622 26.2865C46.8471 26.2448 47.0328 26.2118 47.2194 26.1875C47.4636 26.1562 47.6615 26.1328 47.8132 26.1172C47.9667 26.0998 48.0783 26.0712 48.1481 26.0312C48.2196 25.9913 48.2553 25.9219 48.2553 25.8229V25.8021C48.2553 25.5451 48.1847 25.3455 48.0434 25.2031C47.9039 25.0608 47.692 24.9896 47.4078 24.9896C47.113 24.9896 46.882 25.0538 46.7146 25.1823C46.5471 25.3108 46.4294 25.4479 46.3614 25.5937L45.7754 25.3854C45.8801 25.1424 46.0196 24.9531 46.194 24.8177C46.3701 24.6806 46.562 24.5851 46.7695 24.5312C46.9788 24.4757 47.1845 24.4479 47.3868 24.4479C47.5159 24.4479 47.6641 24.4635 47.8316 24.4948C48.0007 24.5243 48.1638 24.5859 48.3207 24.6797C48.4794 24.7734 48.6111 24.9149 48.7157 25.1042C48.8204 25.2934 48.8727 25.5469 48.8727 25.8646V28.5H48.2553V27.9583H48.2239C48.1821 28.0451 48.1123 28.138 48.0147 28.237C47.917 28.3359 47.7871 28.4201 47.6249 28.4896C47.4627 28.559 47.2648 28.5938 47.0311 28.5938ZM47.1253 28.0417C47.3694 28.0417 47.5752 27.9939 47.7426 27.8984C47.9118 27.803 48.0391 27.6797 48.1245 27.5286C48.2117 27.3776 48.2553 27.2188 48.2553 27.0521V26.4896C48.2292 26.5208 48.1716 26.5495 48.0827 26.5755C47.9955 26.5998 47.8943 26.6215 47.7792 26.6406C47.6659 26.658 47.5551 26.6736 47.447 26.6875C47.3406 26.6997 47.2543 26.7101 47.188 26.7187C47.0276 26.7396 46.8776 26.7734 46.7381 26.8203C46.6003 26.8655 46.4887 26.934 46.4033 27.026C46.3196 27.1163 46.2777 27.2396 46.2777 27.3958C46.2777 27.6094 46.357 27.7708 46.5157 27.8802C46.6762 27.9878 46.8794 28.0417 47.1253 28.0417Z" fill="white"/>
<path d="M51.7469 24.5V25.0208H49.6647V24.5H51.7469ZM50.2715 23.5417H50.8889V27.3542C50.8889 27.5278 50.9142 27.658 50.9648 27.7448C51.0171 27.8299 51.0834 27.8872 51.1636 27.9167C51.2455 27.9444 51.3319 27.9583 51.4225 27.9583C51.4906 27.9583 51.5464 27.9549 51.59 27.9479C51.6336 27.9392 51.6684 27.9323 51.6946 27.9271L51.8202 28.4792C51.7783 28.4948 51.7199 28.5104 51.6449 28.526C51.5699 28.5434 51.4749 28.5521 51.3598 28.5521C51.1854 28.5521 51.0145 28.5148 50.847 28.4401C50.6814 28.3655 50.5436 28.2517 50.4337 28.099C50.3256 27.9462 50.2715 27.7535 50.2715 27.5208V23.5417Z" fill="white"/>
<path d="M52.6756 28.5V24.5H53.2929V28.5H52.6756ZM52.9895 23.8333C52.8691 23.8333 52.7654 23.7925 52.6782 23.7109C52.5927 23.6293 52.55 23.5313 52.55 23.4167C52.55 23.3021 52.5927 23.204 52.6782 23.1224C52.7654 23.0408 52.8691 23 52.9895 23C53.1098 23 53.2127 23.0408 53.2982 23.1224C53.3854 23.204 53.429 23.3021 53.429 23.4167C53.429 23.5313 53.3854 23.6293 53.2982 23.7109C53.2127 23.7925 53.1098 23.8333 52.9895 23.8333Z" fill="white"/>
<path d="M56.056 28.5833C55.6932 28.5833 55.375 28.4974 55.1012 28.3255C54.8291 28.1536 54.6164 27.9132 54.4629 27.6042C54.3112 27.2951 54.2353 26.934 54.2353 26.5208C54.2353 26.1042 54.3112 25.7405 54.4629 25.4297C54.6164 25.1189 54.8291 24.8776 55.1012 24.7057C55.375 24.5339 55.6932 24.4479 56.056 24.4479C56.4187 24.4479 56.7361 24.5339 57.0082 24.7057C57.282 24.8776 57.4947 25.1189 57.6465 25.4297C57.7999 25.7405 57.8767 26.1042 57.8767 26.5208C57.8767 26.934 57.7999 27.2951 57.6465 27.6042C57.4947 27.9132 57.282 28.1536 57.0082 28.3255C56.7361 28.4974 56.4187 28.5833 56.056 28.5833ZM56.056 28.0312C56.3315 28.0312 56.5582 27.9609 56.7361 27.8203C56.914 27.6797 57.0457 27.4948 57.1311 27.2656C57.2166 27.0365 57.2593 26.7882 57.2593 26.5208C57.2593 26.2535 57.2166 26.0043 57.1311 25.7734C57.0457 25.5425 56.914 25.3559 56.7361 25.2135C56.5582 25.0712 56.3315 25 56.056 25C55.7804 25 55.5537 25.0712 55.3759 25.2135C55.198 25.3559 55.0663 25.5425 54.9809 25.7734C54.8954 26.0043 54.8527 26.2535 54.8527 26.5208C54.8527 26.7882 54.8954 27.0365 54.9809 27.2656C55.0663 27.4948 55.198 27.6797 55.3759 27.8203C55.5537 27.9609 55.7804 28.0312 56.056 28.0312Z" fill="white"/>
<path d="M59.4364 26.0938V28.5H58.819V24.5H59.4155V25.125H59.4678C59.562 24.9219 59.705 24.7587 59.8968 24.6354C60.0886 24.5104 60.3363 24.4479 60.6397 24.4479C60.9118 24.4479 61.1498 24.5035 61.3539 24.6146C61.5579 24.724 61.7166 24.8906 61.83 25.1146C61.9433 25.3368 62 25.6181 62 25.9583V28.5H61.3826V26C61.3826 25.6858 61.3007 25.441 61.1367 25.2656C60.9728 25.0885 60.7478 25 60.4618 25C60.2648 25 60.0886 25.0425 59.9334 25.1276C59.78 25.2127 59.6588 25.3368 59.5698 25.5C59.4809 25.6632 59.4364 25.8611 59.4364 26.0938Z" fill="white"/>
<defs>
<radialGradient id="paint0_radial_0_1" cx="0" cy="0" r="1" gradientUnits="userSpaceOnUse" gradientTransform="translate(55.1694 11.9338) scale(11.7361)">
<stop offset="0.07" stop-color="#2814FF"/>
<stop offset="0.08" stop-color="#2718FF"/>
<stop offset="0.23" stop-color="#1654FF"/>
<stop offset="0.35" stop-color="#0A80FF"/>
<stop offset="0.45" stop-color="#039BFF"/>
<stop offset="0.5" stop-color="#00A5FF"/>
<stop offset="1" stop-color="#00CD00"/>
</radialGradient>
</defs>
</svg>
