<svg width="417" height="60" viewBox="0 0 417 60" fill="none" xmlns="http://www.w3.org/2000/svg">
<path d="M139.82 29.6622H131.753L146.5 10H154.567L139.82 29.6622Z" fill="url(#paint0_radial_10365_1390)"/>
<path d="M11.863 17.0215H0V10H30.5222V17.0215H19.0844V49.883H11.863V17.0215Z" fill="white"/>
<path d="M30.5225 20.1107H37.5319V24.548C38.4305 22.8628 39.7788 21.5801 41.5771 20.7C43.3752 19.8198 45.5861 19.5858 48.2095 19.998V27.8068C46.4474 27.1693 44.7401 27.0475 43.0872 27.4413C41.5111 27.7848 40.0939 28.676 39.0684 29.9693C38.0453 31.2573 37.5331 32.8393 37.5319 34.7155V49.8825H30.5225V20.1107Z" fill="white"/>
<path d="M64.2365 50.3323C62.3019 50.3378 60.385 49.9445 58.5965 49.1758C56.808 48.407 55.183 47.2775 53.8147 45.8525C52.4467 44.4273 51.3624 42.7345 50.6244 40.8715C49.8864 39.0085 49.5089 37.0118 49.5142 34.9965C49.4921 32.272 50.1819 29.5928 51.5095 27.2455C52.8053 24.9217 54.6653 22.9939 56.9023 21.6554C59.1269 20.3007 61.6599 19.5929 64.2365 19.6058C66.5153 19.5909 68.7636 20.1499 70.7902 21.2352C72.8038 22.3075 74.5558 23.8444 75.9125 25.7288C77.2788 27.597 78.211 29.7695 78.636 32.0758C79.0299 33.924 79.0476 35.8375 78.6886 37.6933H56.4711C56.6902 38.9285 57.2026 40.087 57.9612 41.0633C58.6908 41.9943 59.6345 42.7183 60.7047 43.1675C61.8262 43.6418 63.0264 43.8805 64.2365 43.8695C65.6136 43.8678 66.9778 43.5918 68.2553 43.0565C69.5057 42.5565 70.6373 41.7803 71.5723 40.7815L77.718 42.5235C76.5658 44.885 74.7142 46.7763 72.1628 48.1973C69.6113 49.6185 66.9694 50.3303 64.2365 50.3323ZM71.8397 32.1385C71.5781 31.032 71.0904 29.9975 70.41 29.1053C69.7042 28.1648 68.8006 27.4055 67.7686 26.8865C66.6495 26.3303 65.4221 26.0513 64.1825 26.0718C62.934 26.0533 61.698 26.332 60.5688 26.8865C59.526 27.4008 58.6121 28.1603 57.8993 29.1053C57.2194 29.9975 56.7322 31.0323 56.4711 32.1385H71.8397Z" fill="white"/>
<path d="M82.1816 10H89.1371V49.883H82.1816V10Z" fill="white"/>
<path d="M94.2939 10H101.249V49.883H94.2939V10Z" fill="white"/>
<path d="M106.118 20.1113H113.074V49.8833H106.118V20.1113Z" fill="white"/>
<path d="M147.031 49.875L124.696 20.1113H116.629L127.792 34.9868L116.629 49.875H124.696L131.827 40.3645L138.964 49.875H147.031Z" fill="white"/>
<path d="M172.192 45.2136H170.475V38.5243H162.717V45.2136H161V31.0194H162.717V37.068H170.475V31.0194H172.192V45.2136Z" fill="white"/>
<path d="M174.253 34.5728H176.051L178.495 40.7476C178.636 41.11 178.768 41.4595 178.889 41.7961C179.01 42.1262 179.118 42.4434 179.212 42.7476C179.306 43.0518 179.38 43.3463 179.434 43.6311H179.505C179.599 43.3074 179.734 42.8835 179.909 42.3592C180.084 41.8285 180.273 41.288 180.475 40.7379L182.788 34.5728H184.596L179.778 46.7767C179.522 47.4304 179.222 48 178.879 48.4854C178.542 48.9709 178.131 49.343 177.646 49.6019C177.162 49.8673 176.576 50 175.889 50C175.572 50 175.293 49.9806 175.051 49.9417C174.808 49.9094 174.599 49.8706 174.424 49.8252V48.534C174.572 48.5663 174.751 48.5955 174.96 48.6214C175.175 48.6472 175.397 48.6602 175.626 48.6602C176.044 48.6602 176.404 48.5825 176.707 48.4272C177.017 48.2783 177.283 48.0583 177.505 47.767C177.727 47.4757 177.919 47.1295 178.081 46.7282L178.687 45.233L174.253 34.5728Z" fill="white"/>
<path d="M191.566 34.3786C192.946 34.3786 194.047 34.835 194.869 35.7476C195.69 36.6602 196.101 38.0324 196.101 39.8641C196.101 41.0744 195.912 42.0906 195.535 42.9126C195.158 43.7346 194.626 44.356 193.939 44.7767C193.259 45.1974 192.455 45.4078 191.525 45.4078C190.939 45.4078 190.424 45.3333 189.98 45.1845C189.535 45.0356 189.155 44.835 188.838 44.5825C188.522 44.3301 188.259 44.055 188.051 43.7573H187.929C187.949 44.0097 187.973 44.3139 188 44.6699C188.034 45.0259 188.051 45.3366 188.051 45.6019V49.9709H186.364V34.5728H187.747L187.97 36.1456H188.051C188.266 35.822 188.529 35.5275 188.838 35.2621C189.148 34.9903 189.525 34.7767 189.97 34.6214C190.421 34.4595 190.953 34.3786 191.566 34.3786ZM191.273 35.7379C190.505 35.7379 189.886 35.8803 189.414 36.165C188.949 36.4498 188.609 36.877 188.394 37.4466C188.178 38.0097 188.064 38.7184 188.051 39.5728V39.8835C188.051 40.7832 188.152 41.5437 188.354 42.165C188.562 42.7864 188.902 43.2589 189.374 43.5825C189.852 43.9061 190.492 44.068 191.293 44.068C191.98 44.068 192.552 43.89 193.01 43.534C193.468 43.178 193.808 42.6828 194.03 42.0485C194.259 41.4078 194.374 40.6731 194.374 39.8447C194.374 38.589 194.118 37.5922 193.606 36.8544C193.101 36.11 192.323 35.7379 191.273 35.7379Z" fill="white"/>
<path d="M203.293 34.3786C204.236 34.3786 205.044 34.5793 205.717 34.9806C206.391 35.3819 206.906 35.945 207.263 36.6699C207.62 37.3883 207.798 38.2298 207.798 39.1942V40.1942H200.152C200.172 41.4434 200.495 42.3948 201.121 43.0485C201.747 43.7023 202.63 44.0291 203.768 44.0291C204.468 44.0291 205.088 43.9676 205.626 43.8447C206.165 43.7217 206.724 43.5405 207.303 43.301V44.7184C206.744 44.9579 206.189 45.1327 205.636 45.2427C205.091 45.3528 204.444 45.4078 203.697 45.4078C202.633 45.4078 201.704 45.2006 200.909 44.7864C200.121 44.3657 199.508 43.7508 199.071 42.9417C198.633 42.1327 198.414 41.1424 198.414 39.9709C198.414 38.8252 198.613 37.835 199.01 37C199.414 36.1586 199.98 35.5113 200.707 35.0583C201.441 34.6052 202.303 34.3786 203.293 34.3786ZM203.273 35.699C202.377 35.699 201.663 35.9806 201.131 36.5437C200.599 37.1068 200.283 37.8932 200.182 38.9029H206.04C206.034 38.2686 205.929 37.712 205.727 37.233C205.532 36.7476 205.232 36.3722 204.828 36.1068C204.424 35.835 203.906 35.699 203.273 35.699Z" fill="white"/>
<path d="M215.677 34.3786C215.899 34.3786 216.131 34.3916 216.374 34.4175C216.616 34.4369 216.832 34.466 217.02 34.5049L216.808 36C216.626 35.9547 216.424 35.9191 216.202 35.8932C215.98 35.8673 215.771 35.8544 215.576 35.8544C215.131 35.8544 214.71 35.9417 214.313 36.1165C213.923 36.2848 213.579 36.5307 213.283 36.8544C212.987 37.1715 212.754 37.5566 212.586 38.0097C212.418 38.4563 212.333 38.9547 212.333 39.5049V45.2136H210.646V34.5728H212.04L212.222 36.534H212.293C212.522 36.1392 212.798 35.7799 213.121 35.4563C213.444 35.1262 213.818 34.8641 214.242 34.6699C214.673 34.4757 215.152 34.3786 215.677 34.3786Z" fill="white"/>
<path d="M223.253 34.3981C224.572 34.3981 225.552 34.6828 226.192 35.2524C226.832 35.822 227.152 36.7314 227.152 37.9806V45.2136H225.929L225.606 43.6408H225.525C225.215 44.0291 224.892 44.356 224.556 44.6214C224.219 44.8803 223.828 45.0777 223.384 45.2136C222.946 45.343 222.407 45.4078 221.768 45.4078C221.094 45.4078 220.495 45.2945 219.97 45.068C219.451 44.8414 219.04 44.4984 218.737 44.0388C218.441 43.5793 218.293 42.9968 218.293 42.2913C218.293 41.2298 218.731 40.4142 219.606 39.8447C220.481 39.2751 221.815 38.9644 223.606 38.9126L225.515 38.835V38.1845C225.515 37.2654 225.31 36.6214 224.899 36.2524C224.488 35.8835 223.909 35.699 223.162 35.699C222.582 35.699 222.03 35.7799 221.505 35.9417C220.98 36.1036 220.481 36.2945 220.01 36.5146L219.495 35.2913C219.993 35.0453 220.566 34.835 221.212 34.6602C221.859 34.4854 222.539 34.3981 223.253 34.3981ZM225.495 39.9709L223.808 40.0388C222.428 40.0906 221.455 40.3074 220.889 40.6893C220.323 41.0712 220.04 41.6117 220.04 42.3107C220.04 42.9191 220.232 43.3689 220.616 43.6602C221 43.9515 221.508 44.0971 222.141 44.0971C223.125 44.0971 223.929 43.835 224.556 43.3107C225.182 42.7864 225.495 42 225.495 40.9515V39.9709Z" fill="white"/>
<path d="M239.747 34.5728V45.2136H238.374L238.131 43.7184H238.04C237.811 44.0874 237.515 44.3981 237.152 44.6505C236.788 44.9029 236.377 45.0906 235.919 45.2136C235.468 45.343 234.987 45.4078 234.475 45.4078C233.599 45.4078 232.865 45.2718 232.273 45C231.68 44.7282 231.232 44.3074 230.929 43.7379C230.633 43.1683 230.485 42.4369 230.485 41.5437V34.5728H232.182V41.4272C232.182 42.3139 232.391 42.9773 232.808 43.4175C233.226 43.8511 233.862 44.068 234.717 44.068C235.539 44.068 236.192 43.9191 236.677 43.6214C237.168 43.3236 237.522 42.8867 237.737 42.3107C237.953 41.7282 238.061 41.0162 238.061 40.1748V34.5728H239.747Z" fill="white"/>
<path d="M246.869 44.0874C247.145 44.0874 247.428 44.0647 247.717 44.0194C248.007 43.9741 248.242 43.9191 248.424 43.8544V45.1068C248.229 45.1909 247.956 45.2621 247.606 45.3204C247.263 45.3786 246.926 45.4078 246.596 45.4078C246.01 45.4078 245.478 45.3107 245 45.1165C244.522 44.9159 244.138 44.5793 243.848 44.1068C243.566 43.6343 243.424 42.9806 243.424 42.1456V35.835H241.848V35.0485L243.434 34.4175L244.101 32.1068H245.111V34.5728H248.354V35.835H245.111V42.0971C245.111 42.7638 245.269 43.2621 245.586 43.5922C245.909 43.9223 246.337 44.0874 246.869 44.0874Z" fill="white"/>
<path d="M260.212 39.8738C260.212 40.7476 260.094 41.5275 259.859 42.2136C259.623 42.8997 259.283 43.479 258.838 43.9515C258.394 44.4239 257.855 44.7864 257.222 45.0388C256.596 45.2848 255.886 45.4078 255.091 45.4078C254.35 45.4078 253.67 45.2848 253.051 45.0388C252.438 44.7864 251.906 44.4239 251.455 43.9515C251.01 43.479 250.663 42.8997 250.414 42.2136C250.172 41.5275 250.051 40.7476 250.051 39.8738C250.051 38.7087 250.256 37.7184 250.667 36.9029C251.077 36.0809 251.663 35.4563 252.424 35.0291C253.192 34.5955 254.104 34.3786 255.162 34.3786C256.172 34.3786 257.054 34.5955 257.808 35.0291C258.569 35.4628 259.158 36.0906 259.576 36.9126C260 37.7282 260.212 38.7152 260.212 39.8738ZM251.788 39.8738C251.788 40.7282 251.906 41.4693 252.141 42.0971C252.377 42.7249 252.741 43.2104 253.232 43.5534C253.724 43.8964 254.357 44.068 255.131 44.068C255.899 44.068 256.529 43.8964 257.02 43.5534C257.519 43.2104 257.886 42.7249 258.121 42.0971C258.357 41.4693 258.475 40.7282 258.475 39.8738C258.475 39.0259 258.357 38.2945 258.121 37.6796C257.886 37.0583 257.522 36.5793 257.03 36.2427C256.539 35.9061 255.902 35.7379 255.121 35.7379C253.97 35.7379 253.125 36.1036 252.586 36.835C252.054 37.5663 251.788 38.5793 251.788 39.8738Z" fill="white"/>
<path d="M275.131 34.3786C276.35 34.3786 277.269 34.6861 277.889 35.301C278.508 35.9094 278.818 36.89 278.818 38.2427V45.2136H277.162V38.3204C277.162 37.4595 276.966 36.8155 276.576 36.3883C276.192 35.9547 275.62 35.7379 274.859 35.7379C273.788 35.7379 273.01 36.0356 272.525 36.6311C272.04 37.2265 271.798 38.1036 271.798 39.2621V45.2136H270.131V38.3204C270.131 37.7443 270.044 37.2654 269.869 36.8835C269.7 36.5016 269.444 36.2168 269.101 36.0291C268.764 35.835 268.337 35.7379 267.818 35.7379C267.084 35.7379 266.495 35.8835 266.051 36.1748C265.606 36.466 265.283 36.8997 265.081 37.4757C264.886 38.0453 264.788 38.7476 264.788 39.5825V45.2136H263.111V34.5728H264.465L264.717 36.0777H264.808C265.03 35.7087 265.31 35.3981 265.646 35.1456C265.983 34.8932 266.36 34.7023 266.778 34.5728C267.195 34.4434 267.64 34.3786 268.111 34.3786C268.953 34.3786 269.657 34.5307 270.222 34.835C270.795 35.1327 271.209 35.589 271.465 36.2039H271.556C271.919 35.589 272.418 35.1327 273.051 34.835C273.684 34.5307 274.377 34.3786 275.131 34.3786Z" fill="white"/>
<path d="M286.404 34.3981C287.724 34.3981 288.704 34.6828 289.343 35.2524C289.983 35.822 290.303 36.7314 290.303 37.9806V45.2136H289.081L288.758 43.6408H288.677C288.367 44.0291 288.044 44.356 287.707 44.6214C287.37 44.8803 286.98 45.0777 286.535 45.2136C286.098 45.343 285.559 45.4078 284.919 45.4078C284.246 45.4078 283.646 45.2945 283.121 45.068C282.603 44.8414 282.192 44.4984 281.889 44.0388C281.593 43.5793 281.444 42.9968 281.444 42.2913C281.444 41.2298 281.882 40.4142 282.758 39.8447C283.633 39.2751 284.966 38.9644 286.758 38.9126L288.667 38.835V38.1845C288.667 37.2654 288.461 36.6214 288.051 36.2524C287.64 35.8835 287.061 35.699 286.313 35.699C285.734 35.699 285.182 35.7799 284.657 35.9417C284.131 36.1036 283.633 36.2945 283.162 36.5146L282.646 35.2913C283.145 35.0453 283.717 34.835 284.364 34.6602C285.01 34.4854 285.69 34.3981 286.404 34.3981ZM288.646 39.9709L286.96 40.0388C285.579 40.0906 284.606 40.3074 284.04 40.6893C283.475 41.0712 283.192 41.6117 283.192 42.3107C283.192 42.9191 283.384 43.3689 283.768 43.6602C284.152 43.9515 284.66 44.0971 285.293 44.0971C286.276 44.0971 287.081 43.835 287.707 43.3107C288.333 42.7864 288.646 42 288.646 40.9515V39.9709Z" fill="white"/>
<path d="M297.333 44.0874C297.609 44.0874 297.892 44.0647 298.182 44.0194C298.471 43.9741 298.707 43.9191 298.889 43.8544V45.1068C298.694 45.1909 298.421 45.2621 298.071 45.3204C297.727 45.3786 297.391 45.4078 297.061 45.4078C296.475 45.4078 295.943 45.3107 295.465 45.1165C294.987 44.9159 294.603 44.5793 294.313 44.1068C294.03 43.6343 293.889 42.9806 293.889 42.1456V35.835H292.313V35.0485L293.899 34.4175L294.566 32.1068H295.576V34.5728H298.818V35.835H295.576V42.0971C295.576 42.7638 295.734 43.2621 296.051 43.5922C296.374 43.9223 296.801 44.0874 297.333 44.0874Z" fill="white"/>
<path d="M302.808 34.5728V45.2136H301.131V34.5728H302.808ZM301.99 30.5922C302.266 30.5922 302.502 30.6796 302.697 30.8544C302.899 31.0227 303 31.288 303 31.6505C303 32.0065 302.899 32.2718 302.697 32.4466C302.502 32.6214 302.266 32.7087 301.99 32.7087C301.7 32.7087 301.458 32.6214 301.263 32.4466C301.074 32.2718 300.98 32.0065 300.98 31.6505C300.98 31.288 301.074 31.0227 301.263 30.8544C301.458 30.6796 301.7 30.5922 301.99 30.5922Z" fill="white"/>
<path d="M315.909 39.8738C315.909 40.7476 315.791 41.5275 315.556 42.2136C315.32 42.8997 314.98 43.479 314.535 43.9515C314.091 44.4239 313.552 44.7864 312.919 45.0388C312.293 45.2848 311.582 45.4078 310.788 45.4078C310.047 45.4078 309.367 45.2848 308.747 45.0388C308.135 44.7864 307.603 44.4239 307.152 43.9515C306.707 43.479 306.36 42.8997 306.111 42.2136C305.869 41.5275 305.747 40.7476 305.747 39.8738C305.747 38.7087 305.953 37.7184 306.364 36.9029C306.774 36.0809 307.36 35.4563 308.121 35.0291C308.889 34.5955 309.801 34.3786 310.859 34.3786C311.869 34.3786 312.751 34.5955 313.505 35.0291C314.266 35.4628 314.855 36.0906 315.273 36.9126C315.697 37.7282 315.909 38.7152 315.909 39.8738ZM307.485 39.8738C307.485 40.7282 307.603 41.4693 307.838 42.0971C308.074 42.7249 308.438 43.2104 308.929 43.5534C309.421 43.8964 310.054 44.068 310.828 44.068C311.596 44.068 312.226 43.8964 312.717 43.5534C313.215 43.2104 313.582 42.7249 313.818 42.0971C314.054 41.4693 314.172 40.7282 314.172 39.8738C314.172 39.0259 314.054 38.2945 313.818 37.6796C313.582 37.0583 313.219 36.5793 312.727 36.2427C312.236 35.9061 311.599 35.7379 310.818 35.7379C309.667 35.7379 308.822 36.1036 308.283 36.835C307.751 37.5663 307.485 38.5793 307.485 39.8738Z" fill="white"/>
<path d="M324.051 34.3786C325.364 34.3786 326.357 34.6893 327.03 35.3107C327.704 35.9256 328.04 36.9159 328.04 38.2816V45.2136H326.384V38.3883C326.384 37.5016 326.172 36.8382 325.747 36.3981C325.33 35.9579 324.687 35.7379 323.818 35.7379C322.593 35.7379 321.731 36.0712 321.232 36.7379C320.734 37.4045 320.485 38.3722 320.485 39.6408V45.2136H318.808V34.5728H320.162L320.414 36.1068H320.505C320.741 35.7314 321.04 35.4175 321.404 35.165C321.768 34.9061 322.175 34.712 322.626 34.5825C323.077 34.4466 323.552 34.3786 324.051 34.3786Z" fill="white"/>
<path d="M340.98 31.0194C342.886 31.0194 344.276 31.3786 345.152 32.0971C346.034 32.8091 346.475 33.8317 346.475 35.165C346.475 35.767 346.37 36.3398 346.162 36.8835C345.96 37.4207 345.63 37.8964 345.172 38.3107C344.714 38.7184 344.111 39.0421 343.364 39.2816C342.623 39.5146 341.714 39.6311 340.636 39.6311H338.838V45.2136H337.121V31.0194H340.98ZM340.818 32.4272H338.838V38.2136H340.444C341.387 38.2136 342.172 38.1165 342.798 37.9223C343.431 37.7282 343.906 37.4142 344.222 36.9806C344.539 36.5405 344.697 35.9579 344.697 35.233C344.697 34.288 344.384 33.5858 343.758 33.1262C343.131 32.6602 342.152 32.4272 340.818 32.4272Z" fill="white"/>
<path d="M351 45.2136H349.313V30.1068H351V45.2136Z" fill="white"/>
<path d="M358.687 34.3981C360.007 34.3981 360.987 34.6828 361.626 35.2524C362.266 35.822 362.586 36.7314 362.586 37.9806V45.2136H361.364L361.04 43.6408H360.96C360.65 44.0291 360.327 44.356 359.99 44.6214C359.653 44.8803 359.263 45.0777 358.818 45.2136C358.38 45.343 357.842 45.4078 357.202 45.4078C356.529 45.4078 355.929 45.2945 355.404 45.068C354.886 44.8414 354.475 44.4984 354.172 44.0388C353.875 43.5793 353.727 42.9968 353.727 42.2913C353.727 41.2298 354.165 40.4142 355.04 39.8447C355.916 39.2751 357.249 38.9644 359.04 38.9126L360.95 38.835V38.1845C360.95 37.2654 360.744 36.6214 360.333 36.2524C359.923 35.8835 359.343 35.699 358.596 35.699C358.017 35.699 357.465 35.7799 356.939 35.9417C356.414 36.1036 355.916 36.2945 355.444 36.5146L354.929 35.2913C355.428 35.0453 356 34.835 356.646 34.6602C357.293 34.4854 357.973 34.3981 358.687 34.3981ZM360.929 39.9709L359.242 40.0388C357.862 40.0906 356.889 40.3074 356.323 40.6893C355.758 41.0712 355.475 41.6117 355.475 42.3107C355.475 42.9191 355.667 43.3689 356.051 43.6602C356.434 43.9515 356.943 44.0971 357.576 44.0971C358.559 44.0971 359.364 43.835 359.99 43.3107C360.616 42.7864 360.929 42 360.929 40.9515V39.9709Z" fill="white"/>
<path d="M369.616 44.0874C369.892 44.0874 370.175 44.0647 370.465 44.0194C370.754 43.9741 370.99 43.9191 371.172 43.8544V45.1068C370.976 45.1909 370.704 45.2621 370.354 45.3204C370.01 45.3786 369.673 45.4078 369.343 45.4078C368.758 45.4078 368.226 45.3107 367.747 45.1165C367.269 44.9159 366.886 44.5793 366.596 44.1068C366.313 43.6343 366.172 42.9806 366.172 42.1456V35.835H364.596V35.0485L366.182 34.4175L366.848 32.1068H367.859V34.5728H371.101V35.835H367.859V42.0971C367.859 42.7638 368.017 43.2621 368.333 43.5922C368.657 43.9223 369.084 44.0874 369.616 44.0874Z" fill="white"/>
<path d="M378.343 35.835H375.586V45.2136H373.909V35.835H371.95V35.0583L373.909 34.5243V33.8155C373.909 32.9223 374.047 32.1974 374.323 31.6408C374.599 31.0777 375 30.6634 375.525 30.3981C376.051 30.1327 376.69 30 377.444 30C377.869 30 378.256 30.0356 378.606 30.1068C378.963 30.178 379.276 30.2589 379.545 30.3495L379.111 31.6214C378.882 31.5502 378.623 31.4854 378.333 31.4272C378.051 31.3625 377.761 31.3301 377.465 31.3301C376.825 31.3301 376.35 31.5307 376.04 31.932C375.737 32.3269 375.586 32.9482 375.586 33.7961V34.5728H378.343V35.835Z" fill="white"/>
<path d="M389.929 39.8738C389.929 40.7476 389.811 41.5275 389.576 42.2136C389.34 42.8997 389 43.479 388.556 43.9515C388.111 44.4239 387.572 44.7864 386.939 45.0388C386.313 45.2848 385.603 45.4078 384.808 45.4078C384.067 45.4078 383.387 45.2848 382.768 45.0388C382.155 44.7864 381.623 44.4239 381.172 43.9515C380.727 43.479 380.38 42.8997 380.131 42.2136C379.889 41.5275 379.768 40.7476 379.768 39.8738C379.768 38.7087 379.973 37.7184 380.384 36.9029C380.795 36.0809 381.38 35.4563 382.141 35.0291C382.909 34.5955 383.822 34.3786 384.879 34.3786C385.889 34.3786 386.771 34.5955 387.525 35.0291C388.286 35.4628 388.875 36.0906 389.293 36.9126C389.717 37.7282 389.929 38.7152 389.929 39.8738ZM381.505 39.8738C381.505 40.7282 381.623 41.4693 381.859 42.0971C382.094 42.7249 382.458 43.2104 382.95 43.5534C383.441 43.8964 384.074 44.068 384.848 44.068C385.616 44.068 386.246 43.8964 386.737 43.5534C387.236 43.2104 387.603 42.7249 387.838 42.0971C388.074 41.4693 388.192 40.7282 388.192 39.8738C388.192 39.0259 388.074 38.2945 387.838 37.6796C387.603 37.0583 387.239 36.5793 386.747 36.2427C386.256 35.9061 385.62 35.7379 384.838 35.7379C383.687 35.7379 382.842 36.1036 382.303 36.835C381.771 37.5663 381.505 38.5793 381.505 39.8738Z" fill="white"/>
<path d="M397.859 34.3786C398.081 34.3786 398.313 34.3916 398.556 34.4175C398.798 34.4369 399.013 34.466 399.202 34.5049L398.99 36C398.808 35.9547 398.606 35.9191 398.384 35.8932C398.162 35.8673 397.953 35.8544 397.758 35.8544C397.313 35.8544 396.892 35.9417 396.495 36.1165C396.104 36.2848 395.761 36.5307 395.465 36.8544C395.168 37.1715 394.936 37.5566 394.768 38.0097C394.599 38.4563 394.515 38.9547 394.515 39.5049V45.2136H392.828V34.5728H394.222L394.404 36.534H394.475C394.704 36.1392 394.98 35.7799 395.303 35.4563C395.626 35.1262 396 34.8641 396.424 34.6699C396.855 34.4757 397.333 34.3786 397.859 34.3786Z" fill="white"/>
<path d="M413.313 34.3786C414.532 34.3786 415.451 34.6861 416.071 35.301C416.69 35.9094 417 36.89 417 38.2427V45.2136H415.343V38.3204C415.343 37.4595 415.148 36.8155 414.758 36.3883C414.374 35.9547 413.801 35.7379 413.04 35.7379C411.97 35.7379 411.192 36.0356 410.707 36.6311C410.222 37.2265 409.98 38.1036 409.98 39.2621V45.2136H408.313V38.3204C408.313 37.7443 408.226 37.2654 408.051 36.8835C407.882 36.5016 407.626 36.2168 407.283 36.0291C406.946 35.835 406.519 35.7379 406 35.7379C405.266 35.7379 404.677 35.8835 404.232 36.1748C403.788 36.466 403.465 36.8997 403.263 37.4757C403.067 38.0453 402.97 38.7476 402.97 39.5825V45.2136H401.293V34.5728H402.646L402.899 36.0777H402.99C403.212 35.7087 403.492 35.3981 403.828 35.1456C404.165 34.8932 404.542 34.7023 404.96 34.5728C405.377 34.4434 405.822 34.3786 406.293 34.3786C407.135 34.3786 407.838 34.5307 408.404 34.835C408.976 35.1327 409.391 35.589 409.646 36.2039H409.737C410.101 35.589 410.599 35.1327 411.232 34.835C411.865 34.5307 412.559 34.3786 413.313 34.3786Z" fill="white"/>
<defs>
<radialGradient id="paint0_radial_10365_1390" cx="0" cy="0" r="1" gradientUnits="userSpaceOnUse" gradientTransform="translate(132.407 29.8345) scale(28.1666 29.3402)">
<stop offset="0.07" stop-color="#2814FF"/>
<stop offset="0.08" stop-color="#2718FF"/>
<stop offset="0.23" stop-color="#1654FF"/>
<stop offset="0.35" stop-color="#0A80FF"/>
<stop offset="0.45" stop-color="#039BFF"/>
<stop offset="0.5" stop-color="#00A5FF"/>
<stop offset="1" stop-color="#00CD00"/>
</radialGradient>
</defs>
</svg>
