<svg width="32" height="32" viewBox="0 0 32 32" fill="none" xmlns="http://www.w3.org/2000/svg">
<path d="M29.3333 0H2.66667C1.19391 0 0 1.19391 0 2.66667V29.3333C0 30.8061 1.19391 32 2.66667 32H29.3333C30.8061 32 32 30.8061 32 29.3333V2.66667C32 1.19391 30.8061 0 29.3333 0Z" fill="url(#paint0_linear_3675_70259)"/>
<path d="M22.4775 7.81072C22.7391 7.84759 22.9504 7.91559 23.1539 8.03025C23.5783 8.27305 23.7819 8.60332 23.8729 9.20172C23.8962 9.36492 23.9447 10.0954 23.9582 10.5034C23.9951 11.5797 24.0144 17.7499 23.9873 19.5955C23.9699 20.8233 23.9505 21.2216 23.8923 21.4995C23.7005 22.4164 23.1597 23.0867 22.2643 23.518C21.8205 23.7297 21.4096 23.8541 21.1209 23.8579C20.7197 23.8638 20.6615 23.7569 20.4871 22.7253C20.3805 22.0901 20.3727 22.1425 20.6015 22.1037C20.7953 22.0725 21.3534 21.8783 21.491 21.7967C21.8205 21.5985 22.0395 21.2469 22.1073 20.7981C22.1248 20.6913 22.1287 19.2186 22.1248 15.1077L22.1191 9.64512C22.119 9.59485 22.0871 9.55019 22.0395 9.53392C21.9639 9.50672 21.9562 9.50865 21.7197 9.59999C21.5221 9.67772 19.363 10.7715 17.3513 11.8147C16.1497 12.4364 14.7329 13.1611 14.5973 13.2193C14.3104 13.3457 14.1554 13.3417 13.9693 13.2057C13.8841 13.1455 13.8375 13.0795 13.6185 12.7123C13.479 12.4792 13.353 12.2519 13.3375 12.2091C13.2619 11.9935 13.3414 11.7817 13.5739 11.5835C13.7038 11.4728 13.8685 11.3854 15.388 10.6238C17.2525 9.68932 19.6867 8.50232 20.2197 8.26532C21.1538 7.84952 21.7992 7.72132 22.4775 7.81072ZM11.3393 7.98552C11.4382 8.02632 11.475 8.10985 11.4615 8.25752C11.4556 8.32359 11.4459 8.60332 11.4401 8.88119C11.4343 9.15899 11.4246 9.42319 11.4188 9.46785C11.4133 9.51552 11.3729 9.55139 11.325 9.55139H11.2695C10.7424 9.55332 10.2327 9.99825 9.98655 10.6782C9.87415 10.9929 9.86448 11.0804 9.79468 12.553C9.68808 14.7658 9.67841 15.1427 9.67841 16.7785C9.67841 18.4163 9.69781 18.9855 9.79468 20.2367C9.86061 21.1167 9.89935 21.2935 10.1087 21.6704C10.2288 21.8861 10.3567 22.0279 10.4963 22.0959C10.5951 22.1445 10.6261 22.1503 10.7909 22.1483C10.944 22.1464 11.0002 22.1347 11.13 22.0861C11.2153 22.0551 11.3238 22.0065 11.3723 21.9793C11.7115 21.7889 16.9579 19.1565 17.6924 18.8067C18.1323 18.5989 18.299 18.5659 18.5393 18.6397C18.7428 18.7038 18.8339 18.7835 19.1072 19.139C19.2583 19.3371 19.3475 19.5061 19.363 19.6325C19.3863 19.8267 19.2603 20.0579 19.051 20.2017C18.9444 20.2755 14.2309 22.6359 13.7367 22.8633C13.2619 23.0828 13.0953 23.1683 12.7193 23.3859C12.0467 23.7763 11.5254 23.9279 10.8587 23.9279C10.0331 23.9279 9.43035 23.6811 8.88961 23.1236C8.69775 22.9254 8.53881 22.6943 8.40508 22.4223C8.26168 22.1269 8.19188 21.9133 8.11828 21.548C7.99615 20.9457 8.00001 21.1089 8.00001 15.8654C8.00001 12.8911 8.00775 11.0221 8.01941 10.9017C8.07561 10.3149 8.22875 9.81565 8.48068 9.39599C8.96908 8.58585 9.74821 8.07685 10.6862 7.95832C10.8761 7.93505 11.256 7.95059 11.3393 7.98552ZM19.6867 13.1844C19.8204 13.2524 19.8921 13.3495 19.9793 13.5769C20.0239 13.6934 20.1208 13.8896 20.1945 14.012C20.4329 14.4142 20.4387 14.6085 20.2138 14.7755C20.1654 14.8125 19.6886 15.0572 19.1557 15.3215C18.6207 15.5857 17.0334 16.3783 15.6264 17.0835C14.2193 17.7887 13.008 18.3891 12.9325 18.4201C12.7135 18.5076 12.5351 18.4921 12.3452 18.3657C12.2638 18.3113 11.9266 17.8471 11.8258 17.6527C11.756 17.5207 11.7502 17.4935 11.7521 17.3613C11.7521 17.237 11.7619 17.1981 11.8142 17.0991C11.8936 16.9456 11.977 16.8562 12.1204 16.7649C12.3161 16.6387 19.2215 13.1863 19.3378 13.1553C19.4619 13.1222 19.5878 13.1339 19.6867 13.1844Z" fill="white"/>
<path d="M20.2635 3.72312C20.2635 6.29312 20.4752 6.29312 19.5706 6.29312C18.6658 6.29312 18.8781 6.29312 18.8781 3.72312C18.8781 1.15314 18.6866 1.15314 19.571 1.15314C20.4545 1.15314 20.2635 1.15314 20.2635 3.72312Z" fill="white"/>
<path d="M20.2635 3.72312C20.2635 6.29312 20.4752 6.29312 19.5706 6.29312C18.6658 6.29312 18.8781 6.29312 18.8781 3.72312C18.8781 1.15314 18.6866 1.15314 19.571 1.15314C20.4545 1.15314 20.2635 1.15314 20.2635 3.72312Z" fill="white"/>
<path d="M20.2635 3.72312C20.2635 6.29312 20.4752 6.29312 19.5706 6.29312C18.6658 6.29312 18.8781 6.29312 18.8781 3.72312C18.8781 1.15314 18.6866 1.15314 19.571 1.15314C20.4545 1.15314 20.2635 1.15314 20.2635 3.72312Z" fill="white"/>
<path d="M20.2635 3.72312C20.2635 6.29312 20.4752 6.29312 19.5706 6.29312C18.6658 6.29312 18.8781 6.29312 18.8781 3.72312C18.8781 1.15314 18.6866 1.15314 19.571 1.15314C20.4545 1.15314 20.2635 1.15314 20.2635 3.72312Z" fill="white"/>
<path d="M16.8358 3.72312C16.8358 6.29312 17.0475 6.29312 16.1429 6.29312C15.2381 6.29312 15.4504 6.29312 15.4504 3.72312C15.4504 1.15314 15.2588 1.15314 16.1433 1.15314C17.0268 1.15314 16.8358 1.15314 16.8358 3.72312Z" fill="white"/>
<path d="M16.8358 3.72312C16.8358 6.29312 17.0475 6.29312 16.1429 6.29312C15.2381 6.29312 15.4504 6.29312 15.4504 3.72312C15.4504 1.15314 15.2588 1.15314 16.1433 1.15314C17.0268 1.15314 16.8358 1.15314 16.8358 3.72312Z" fill="white"/>
<path d="M16.8358 3.72312C16.8358 6.29312 17.0475 6.29312 16.1429 6.29312C15.2381 6.29312 15.4504 6.29312 15.4504 3.72312C15.4504 1.15314 15.2588 1.15314 16.1433 1.15314C17.0268 1.15314 16.8358 1.15314 16.8358 3.72312Z" fill="white"/>
<path d="M16.8358 3.72312C16.8358 6.29312 17.0475 6.29312 16.1429 6.29312C15.2381 6.29312 15.4504 6.29312 15.4504 3.72312C15.4504 1.15314 15.2588 1.15314 16.1433 1.15314C17.0268 1.15314 16.8358 1.15314 16.8358 3.72312Z" fill="white"/>
<path d="M13.4071 3.72312C13.4071 6.29312 13.6187 6.29312 12.7141 6.29312C11.8093 6.29312 12.0217 6.29312 12.0217 3.72312C12.0217 1.15314 11.8301 1.15314 12.7145 1.15314C13.598 1.15314 13.4071 1.15314 13.4071 3.72312Z" fill="white"/>
<path d="M13.4071 3.72312C13.4071 6.29312 13.6187 6.29312 12.7141 6.29312C11.8093 6.29312 12.0217 6.29312 12.0217 3.72312C12.0217 1.15314 11.8301 1.15314 12.7145 1.15314C13.598 1.15314 13.4071 1.15314 13.4071 3.72312Z" fill="white"/>
<path d="M13.4071 3.72312C13.4071 6.29312 13.6187 6.29312 12.7141 6.29312C11.8093 6.29312 12.0217 6.29312 12.0217 3.72312C12.0217 1.15314 11.8301 1.15314 12.7145 1.15314C13.598 1.15314 13.4071 1.15314 13.4071 3.72312Z" fill="white"/>
<path d="M13.4071 3.72312C13.4071 6.29312 13.6187 6.29312 12.7141 6.29312C11.8093 6.29312 12.0217 6.29312 12.0217 3.72312C12.0217 1.15314 11.8301 1.15314 12.7145 1.15314C13.598 1.15314 13.4071 1.15314 13.4071 3.72312Z" fill="white"/>
<path d="M20.2635 27.651C20.2635 30.221 20.4752 30.221 19.5706 30.221C18.6658 30.221 18.8781 30.221 18.8781 27.651C18.8781 25.081 18.6866 25.081 19.571 25.081C20.4545 25.081 20.2635 25.081 20.2635 27.651Z" fill="white"/>
<path d="M20.2635 27.651C20.2635 30.221 20.4752 30.221 19.5706 30.221C18.6658 30.221 18.8781 30.221 18.8781 27.651C18.8781 25.081 18.6866 25.081 19.571 25.081C20.4545 25.081 20.2635 25.081 20.2635 27.651Z" fill="white"/>
<path d="M20.2635 27.651C20.2635 30.221 20.4752 30.221 19.5706 30.221C18.6658 30.221 18.8781 30.221 18.8781 27.651C18.8781 25.081 18.6866 25.081 19.571 25.081C20.4545 25.081 20.2635 25.081 20.2635 27.651Z" fill="white"/>
<path d="M20.2635 27.651C20.2635 30.221 20.4752 30.221 19.5706 30.221C18.6658 30.221 18.8781 30.221 18.8781 27.651C18.8781 25.081 18.6866 25.081 19.571 25.081C20.4545 25.081 20.2635 25.081 20.2635 27.651Z" fill="white"/>
<path d="M16.8358 27.651C16.8358 30.221 17.0475 30.221 16.1429 30.221C15.2381 30.221 15.4504 30.221 15.4504 27.651C15.4504 25.081 15.2588 25.081 16.1433 25.081C17.0268 25.081 16.8358 25.081 16.8358 27.651Z" fill="white"/>
<path d="M16.8358 27.651C16.8358 30.221 17.0475 30.221 16.1429 30.221C15.2381 30.221 15.4504 30.221 15.4504 27.651C15.4504 25.081 15.2588 25.081 16.1433 25.081C17.0268 25.081 16.8358 25.081 16.8358 27.651Z" fill="white"/>
<path d="M16.8358 27.651C16.8358 30.221 17.0475 30.221 16.1429 30.221C15.2381 30.221 15.4504 30.221 15.4504 27.651C15.4504 25.081 15.2588 25.081 16.1433 25.081C17.0268 25.081 16.8358 25.081 16.8358 27.651Z" fill="white"/>
<path d="M16.8358 27.651C16.8358 30.221 17.0475 30.221 16.1429 30.221C15.2381 30.221 15.4504 30.221 15.4504 27.651C15.4504 25.081 15.2588 25.081 16.1433 25.081C17.0268 25.081 16.8358 25.081 16.8358 27.651Z" fill="white"/>
<path d="M13.4071 27.651C13.4071 30.221 13.6187 30.221 12.7141 30.221C11.8093 30.221 12.0217 30.221 12.0217 27.651C12.0217 25.081 11.8301 25.081 12.7145 25.081C13.598 25.081 13.4071 25.081 13.4071 27.651Z" fill="white"/>
<path d="M13.4071 27.651C13.4071 30.221 13.6187 30.221 12.7141 30.221C11.8093 30.221 12.0217 30.221 12.0217 27.651C12.0217 25.081 11.8301 25.081 12.7145 25.081C13.598 25.081 13.4071 25.081 13.4071 27.651Z" fill="white"/>
<path d="M13.4071 27.651C13.4071 30.221 13.6187 30.221 12.7141 30.221C11.8093 30.221 12.0217 30.221 12.0217 27.651C12.0217 25.081 11.8301 25.081 12.7145 25.081C13.598 25.081 13.4071 25.081 13.4071 27.651Z" fill="white"/>
<path d="M13.4071 27.651C13.4071 30.221 13.6187 30.221 12.7141 30.221C11.8093 30.221 12.0217 30.221 12.0217 27.651C12.0217 25.081 11.8301 25.081 12.7145 25.081C13.598 25.081 13.4071 25.081 13.4071 27.651Z" fill="white"/>
<path d="M3.7116 11.8417C6.2816 11.8417 6.2816 11.6281 6.2816 12.5408C6.2816 13.4537 6.2816 13.2395 3.7116 13.2395C1.1416 13.2395 1.1416 13.4329 1.1416 12.5404C1.1416 11.649 1.1416 11.8417 3.7116 11.8417Z" fill="white"/>
<path d="M3.7116 11.8417C6.2816 11.8417 6.2816 11.6281 6.2816 12.5408C6.2816 13.4537 6.2816 13.2395 3.7116 13.2395C1.1416 13.2395 1.1416 13.4329 1.1416 12.5404C1.1416 11.649 1.1416 11.8417 3.7116 11.8417Z" fill="white"/>
<path d="M3.7116 11.8417C6.2816 11.8417 6.2816 11.6281 6.2816 12.5408C6.2816 13.4537 6.2816 13.2395 3.7116 13.2395C1.1416 13.2395 1.1416 13.4329 1.1416 12.5404C1.1416 11.649 1.1416 11.8417 3.7116 11.8417Z" fill="white"/>
<path d="M3.7116 11.8417C6.2816 11.8417 6.2816 11.6281 6.2816 12.5408C6.2816 13.4537 6.2816 13.2395 3.7116 13.2395C1.1416 13.2395 1.1416 13.4329 1.1416 12.5404C1.1416 11.649 1.1416 11.8417 3.7116 11.8417Z" fill="white"/>
<path d="M3.7116 15.301C6.2816 15.301 6.2816 15.0874 6.2816 16.0001C6.2816 16.9131 6.2816 16.6989 3.7116 16.6989C1.1416 16.6989 1.1416 16.8921 1.1416 15.9997C1.1416 15.1083 1.1416 15.301 3.7116 15.301Z" fill="white"/>
<path d="M3.7116 15.301C6.2816 15.301 6.2816 15.0874 6.2816 16.0001C6.2816 16.9131 6.2816 16.6989 3.7116 16.6989C1.1416 16.6989 1.1416 16.8921 1.1416 15.9997C1.1416 15.1083 1.1416 15.301 3.7116 15.301Z" fill="white"/>
<path d="M3.7116 15.301C6.2816 15.301 6.2816 15.0874 6.2816 16.0001C6.2816 16.9131 6.2816 16.6989 3.7116 16.6989C1.1416 16.6989 1.1416 16.8921 1.1416 15.9997C1.1416 15.1083 1.1416 15.301 3.7116 15.301Z" fill="white"/>
<path d="M3.7116 15.301C6.2816 15.301 6.2816 15.0874 6.2816 16.0001C6.2816 16.9131 6.2816 16.6989 3.7116 16.6989C1.1416 16.6989 1.1416 16.8921 1.1416 15.9997C1.1416 15.1083 1.1416 15.301 3.7116 15.301Z" fill="white"/>
<path d="M3.7116 18.7605C6.2816 18.7605 6.2816 18.5469 6.2816 19.4597C6.2816 20.3726 6.2816 20.1584 3.7116 20.1584C1.1416 20.1584 1.1416 20.3517 1.1416 19.4593C1.1416 18.5679 1.1416 18.7605 3.7116 18.7605Z" fill="white"/>
<path d="M3.7116 18.7605C6.2816 18.7605 6.2816 18.5469 6.2816 19.4597C6.2816 20.3726 6.2816 20.1584 3.7116 20.1584C1.1416 20.1584 1.1416 20.3517 1.1416 19.4593C1.1416 18.5679 1.1416 18.7605 3.7116 18.7605Z" fill="white"/>
<path d="M3.7116 18.7605C6.2816 18.7605 6.2816 18.5469 6.2816 19.4597C6.2816 20.3726 6.2816 20.1584 3.7116 20.1584C1.1416 20.1584 1.1416 20.3517 1.1416 19.4593C1.1416 18.5679 1.1416 18.7605 3.7116 18.7605Z" fill="white"/>
<path d="M3.7116 18.7605C6.2816 18.7605 6.2816 18.5469 6.2816 19.4597C6.2816 20.3726 6.2816 20.1584 3.7116 20.1584C1.1416 20.1584 1.1416 20.3517 1.1416 19.4593C1.1416 18.5679 1.1416 18.7605 3.7116 18.7605Z" fill="white"/>
<path d="M28.0967 11.8417C30.668 11.8417 30.668 11.6281 30.668 12.5408C30.668 13.4537 30.668 13.2395 28.0967 13.2395C25.5254 13.2395 25.5254 13.4329 25.5254 12.5404C25.5254 11.649 25.5254 11.8417 28.0967 11.8417Z" fill="white"/>
<path d="M28.0967 11.8417C30.668 11.8417 30.668 11.6281 30.668 12.5408C30.668 13.4537 30.668 13.2395 28.0967 13.2395C25.5254 13.2395 25.5254 13.4329 25.5254 12.5404C25.5254 11.649 25.5254 11.8417 28.0967 11.8417Z" fill="white"/>
<path d="M28.0967 11.8417C30.668 11.8417 30.668 11.6281 30.668 12.5408C30.668 13.4537 30.668 13.2395 28.0967 13.2395C25.5254 13.2395 25.5254 13.4329 25.5254 12.5404C25.5254 11.649 25.5254 11.8417 28.0967 11.8417Z" fill="white"/>
<path d="M28.0967 11.8417C30.668 11.8417 30.668 11.6281 30.668 12.5408C30.668 13.4537 30.668 13.2395 28.0967 13.2395C25.5254 13.2395 25.5254 13.4329 25.5254 12.5404C25.5254 11.649 25.5254 11.8417 28.0967 11.8417Z" fill="white"/>
<path d="M28.0967 15.301C30.668 15.301 30.668 15.0874 30.668 16.0001C30.668 16.9131 30.668 16.6989 28.0967 16.6989C25.5254 16.6989 25.5254 16.8921 25.5254 15.9997C25.5254 15.1083 25.5254 15.301 28.0967 15.301Z" fill="white"/>
<path d="M28.0967 15.301C30.668 15.301 30.668 15.0874 30.668 16.0001C30.668 16.9131 30.668 16.6989 28.0967 16.6989C25.5254 16.6989 25.5254 16.8921 25.5254 15.9997C25.5254 15.1083 25.5254 15.301 28.0967 15.301Z" fill="white"/>
<path d="M28.0967 15.301C30.668 15.301 30.668 15.0874 30.668 16.0001C30.668 16.9131 30.668 16.6989 28.0967 16.6989C25.5254 16.6989 25.5254 16.8921 25.5254 15.9997C25.5254 15.1083 25.5254 15.301 28.0967 15.301Z" fill="white"/>
<path d="M28.0967 15.301C30.668 15.301 30.668 15.0874 30.668 16.0001C30.668 16.9131 30.668 16.6989 28.0967 16.6989C25.5254 16.6989 25.5254 16.8921 25.5254 15.9997C25.5254 15.1083 25.5254 15.301 28.0967 15.301Z" fill="white"/>
<path d="M28.0967 18.7605C30.668 18.7605 30.668 18.5469 30.668 19.4597C30.668 20.3726 30.668 20.1584 28.0967 20.1584C25.5254 20.1584 25.5254 20.3517 25.5254 19.4593C25.5254 18.5679 25.5254 18.7605 28.0967 18.7605Z" fill="white"/>
<path d="M28.0967 18.7605C30.668 18.7605 30.668 18.5469 30.668 19.4597C30.668 20.3726 30.668 20.1584 28.0967 20.1584C25.5254 20.1584 25.5254 20.3517 25.5254 19.4593C25.5254 18.5679 25.5254 18.7605 28.0967 18.7605Z" fill="white"/>
<path d="M28.0967 18.7605C30.668 18.7605 30.668 18.5469 30.668 19.4597C30.668 20.3726 30.668 20.1584 28.0967 20.1584C25.5254 20.1584 25.5254 20.3517 25.5254 19.4593C25.5254 18.5679 25.5254 18.7605 28.0967 18.7605Z" fill="white"/>
<path d="M28.0967 18.7605C30.668 18.7605 30.668 18.5469 30.668 19.4597C30.668 20.3726 30.668 20.1584 28.0967 20.1584C25.5254 20.1584 25.5254 20.3517 25.5254 19.4593C25.5254 18.5679 25.5254 18.7605 28.0967 18.7605Z" fill="white"/>
<defs>
<linearGradient id="paint0_linear_3675_70259" x1="-8.33333" y1="1.63178e-06" x2="35.6667" y2="38.3333" gradientUnits="userSpaceOnUse">
<stop offset="0.364583" stop-color="#6B0BEA"/>
<stop offset="0.65625" stop-color="#D71E74"/>
</linearGradient>
</defs>
</svg>
