<?xml version="1.0" encoding="UTF-8"?>
<svg id="Layer_2" data-name="Layer 2" xmlns="http://www.w3.org/2000/svg" viewBox="0 0 556.331 555.97">
  <defs>
    <style>
      .cls-1 {
        fill: #8d81ef;
      }
    </style>
  </defs>
  <g id="Layer_1-2" data-name="Layer 1">
    <g id="Logo_Mark_-_Violet" data-name="Logo Mark - Violet">
      <g>
        <path class="cls-1" d="M556.314,270.553h-99.773l69.109-119.694c18.6,36.063,29.528,76.668,30.664,119.694Z"/>
        <path class="cls-1" d="M517.671,136.405l-73.401,127.129-52.089-90.218c11.709-9.194,19.258-23.445,19.258-39.488s-7.55-30.296-19.26-39.49l31.058-53.793c38.745,23.761,71.224,56.746,94.433,95.86Z"/>
        <path class="cls-1" d="M361.218,184.049c6.626,0,12.938-1.315,18.731-3.647l52.05,90.15h-141.562l52.05-90.15c5.792,2.331,12.104,3.647,18.731,3.647Z"/>
        <polygon class="cls-1" points="432.052 284.695 361.218 407.378 290.383 284.695 432.052 284.695"/>
        <path class="cls-1" d="M411.011,33.451l-31.064,53.802c-5.791-2.331-12.103-3.647-18.73-3.647s-12.937,1.314-18.729,3.647L292.11,0c42.882,2.125,83.24,14.001,118.901,33.451Z"/>
        <path class="cls-1" d="M330.256,94.338c-11.71,9.194-19.26,23.445-19.26,39.49s7.55,30.293,19.259,39.488l-52.09,90.218-74.89-129.706L278.167,4.121l52.089,90.217Z"/>
        <path class="cls-1" d="M195.114,388.044c-3.565,0-6.934.708-10.157,1.74l-50.143-86.845c5.324-4.717,9.219-11.006,10.693-18.244h120.44l-60.677,105.089c-3.223-1.032-6.592-1.74-10.157-1.74Z"/>
        <path class="cls-1" d="M145.293,270.553c-1.601-7.04-5.455-13.153-10.721-17.732l60.542-104.857,70.78,122.589h-120.601Z"/>
        <path class="cls-1" d="M264.223,0l-69.107,119.694-49.796-86.242C180.981,14.001,221.34,2.126,264.223,0Z"/>
        <path class="cls-1" d="M133.095,40.546l53.858,93.282-64.785,112.205c-3.016-.893-6.145-1.52-9.451-1.52-3.713,0-7.222.748-10.56,1.865l-63.496-109.974c23.21-39.113,55.688-72.097,94.433-95.858Z"/>
        <path class="cls-1" d="M30.682,150.856l59.295,102.697c-4.824,4.491-8.322,10.346-9.835,16.999H.017c1.136-43.027,12.064-83.633,30.665-119.696Z"/>
        <path class="cls-1" d="M0,284.695h79.928c1.395,6.848,4.927,12.881,9.807,17.512l-59.22,102.568C11.914,368.595,1.031,327.856,0,284.695Z"/>
        <path class="cls-1" d="M38.482,419.245l63.371-109.757c3.424,1.183,7.039,1.96,10.864,1.96,3.418,0,6.649-.662,9.755-1.614l50.223,86.985c-6.739,6.122-11.048,14.87-11.048,24.693s4.308,18.571,11.048,24.694l-39.864,69.042c-38.73-23.811-71.182-56.844-94.35-96.002Z"/>
        <path class="cls-1" d="M145.052,522.355l39.905-69.115c3.223,1.032,6.592,1.739,10.157,1.739s6.936-.707,10.159-1.739l59.314,102.73c-43.128-2.082-83.707-14.022-119.535-33.615Z"/>
        <path class="cls-1" d="M217.533,446.205c6.74-6.122,11.048-14.87,11.048-24.694s-4.307-18.571-11.048-24.694l60.632-105.012,74.89,129.708-74.888,129.705-60.634-105.013Z"/>
        <path class="cls-1" d="M291.747,555.97l69.47-120.321,50.062,86.706c-35.828,19.594-76.406,31.533-119.532,33.615Z"/>
        <path class="cls-1" d="M423.499,515.247l-54.119-93.734,74.89-129.708,73.579,127.438c-23.168,39.16-55.619,72.193-94.35,96.004Z"/>
        <path class="cls-1" d="M456.487,284.695h99.844c-1.031,43.16-11.914,83.898-30.514,120.078l-69.33-120.078Z"/>
      </g>
    </g>
  </g>
</svg>